<svg width="58" height="50" viewBox="0 0 58 50" fill="none" xmlns="http://www.w3.org/2000/svg">
<path d="M28.0935 49.9728C23.1542 49.9733 18.3257 48.5091 14.2186 45.7653C10.1115 43.0215 6.91028 39.1214 5.01977 34.5583C3.12925 29.9951 2.63435 24.9738 3.59767 20.1293C4.56098 15.2849 6.93923 10.8349 10.4317 7.34214C13.9241 3.84936 18.3739 1.47068 23.2182 0.506893C28.0626 -0.456892 33.0839 0.0375147 37.6473 1.92759C42.2106 3.81766 46.111 7.01851 48.8552 11.1253C51.5994 15.2322 53.0641 20.0605 53.0641 24.9998C53.0572 31.6206 50.4242 37.9682 45.7429 42.65C41.0616 47.3317 34.7142 49.9653 28.0935 49.9728ZM28.0935 1.65335C23.4747 1.65287 18.9596 3.02212 15.119 5.58792C11.2785 8.15372 8.28512 11.8008 6.51748 16.068C4.74985 20.3351 4.28735 25.0306 5.18849 29.5606C6.08962 34.0906 8.31391 38.2517 11.58 41.5175C14.8462 44.7833 19.0074 47.0071 23.5376 47.9078C28.0677 48.8084 32.7631 48.3455 37.0301 46.5774C41.297 44.8093 44.9438 41.8155 47.5092 37.9747C50.0746 34.1339 51.4434 29.6186 51.4424 24.9998C51.436 18.8091 48.974 12.8737 44.5967 8.49591C40.2194 4.11815 34.2843 1.65557 28.0935 1.64849V1.65335Z" fill="#1D1729"/>
<path d="M9.1854 39.8703C7.66143 39.9025 6.14171 39.6979 4.68053 39.2638C3.91382 39.0631 3.1962 38.7078 2.57171 38.2198C1.94721 37.7318 1.42902 37.1214 1.04891 36.4259C-0.163252 33.9862 1.34648 29.89 3.37999 26.9127C3.50332 26.7402 3.68931 26.6229 3.89811 26.5859C4.10691 26.5489 4.32189 26.5952 4.49697 26.7148C4.67206 26.8344 4.79332 27.0179 4.83475 27.2258C4.87619 27.4338 4.83451 27.6497 4.71864 27.8273C2.69161 30.79 1.74215 34.1759 2.50107 35.7043C2.78859 36.2044 3.17439 36.6411 3.63522 36.9881C4.09604 37.3351 4.62235 37.5851 5.18242 37.7232C10.743 39.5338 22.0854 36.7811 33.4059 30.8784C49.2427 22.6195 57.5681 12.4203 55.4121 8.07595C54.5559 6.3546 51.8446 5.42784 47.9584 5.52027C47.8519 5.52288 47.7459 5.50449 47.6466 5.46615C47.5472 5.42782 47.4564 5.37028 47.3792 5.29684C47.2234 5.1485 47.133 4.94436 47.1277 4.72932C47.1224 4.51428 47.2028 4.30596 47.3511 4.15018C47.4995 3.99439 47.7036 3.90392 47.9186 3.89865C52.5232 3.78676 55.7024 5.01027 56.8643 7.35351C59.7678 13.1962 49.7932 24.16 34.1551 32.3151C24.9459 37.1176 15.6289 39.8703 9.1854 39.8703Z" fill="#1D1729"/>
<path d="M50.4476 8.59264C50.3272 8.59265 50.2084 8.56587 50.0997 8.51427C49.991 8.46266 49.8952 8.38751 49.8192 8.29427L47.3105 5.2221C47.241 5.13701 47.1894 5.03866 47.159 4.93303C47.1286 4.8274 47.1201 4.7167 47.1338 4.60765C47.1475 4.4986 47.1833 4.39348 47.2389 4.29867C47.2945 4.20387 47.3688 4.12136 47.4573 4.05616L50.7232 1.64886C50.809 1.58567 50.9064 1.53998 51.0098 1.51442C51.1132 1.48886 51.2207 1.48392 51.326 1.49988C51.4313 1.51584 51.5325 1.55239 51.6237 1.60745C51.7149 1.6625 51.7944 1.73498 51.8576 1.82075C51.9207 1.90652 51.9664 2.00389 51.992 2.10732C52.0175 2.21074 52.0225 2.31818 52.0065 2.42351C51.9906 2.52885 51.954 2.63 51.899 2.72121C51.8439 2.81241 51.7714 2.89188 51.6857 2.95508L49.1081 4.85643L51.0775 7.26859C51.1747 7.38739 51.2361 7.53131 51.2547 7.68364C51.2733 7.83596 51.2483 7.99044 51.1825 8.1291C51.1168 8.26777 51.0131 8.38494 50.8834 8.467C50.7537 8.54905 50.6034 8.59262 50.45 8.59264H50.4476Z" fill="#1D1729"/>
<path d="M27.1927 41.4596C26.6471 41.4621 26.1065 41.3554 25.6027 41.1458C23.78 40.3723 22.7122 38.6202 21.9849 37.181L21.9362 37.0853C21.5008 36.2193 21.05 35.3234 20.3324 35.0648C20.0805 34.9871 19.8203 34.939 19.5573 34.9212C19.2909 34.8969 19.0264 34.856 18.7651 34.7988C17.3519 34.4745 16.1381 33.3702 15.0646 31.4169L14.7638 30.8493C14.307 29.7747 13.6122 28.8177 12.7319 28.0504C12.4568 27.859 12.1451 27.7265 11.8164 27.6612C11.4877 27.5959 11.149 27.5992 10.8216 27.671C10.6515 27.7027 10.4907 27.7722 10.3512 27.8746C10.2117 27.9769 10.097 28.1093 10.0157 28.2621C9.69134 28.9164 10.044 29.7515 10.4486 30.7196C10.9035 31.8069 11.4216 33.0394 10.9797 34.3066C10.3424 36.1253 8.13134 36.748 6.27702 36.4204C6.09858 36.3901 5.93396 36.3051 5.80594 36.1772C5.68376 36.0487 5.60706 35.8837 5.58758 35.7075C5.5681 35.5313 5.60691 35.3536 5.69807 35.2015C5.78923 35.0495 5.92771 34.9315 6.09232 34.8656C6.25692 34.7998 6.43857 34.7897 6.60945 34.8369C7.75269 35.021 9.11729 34.7169 9.44729 33.7772C9.68323 33.0977 9.3281 32.2488 8.95188 31.3496C8.4654 30.1861 7.91323 28.8669 8.56026 27.5502C8.74547 27.1865 9.00863 26.8682 9.33097 26.6178C9.65332 26.3675 10.0269 26.1914 10.4251 26.1021C10.981 25.9727 11.5579 25.9626 12.1179 26.0725C12.6779 26.1823 13.2083 26.4096 13.674 26.7394C14.7671 27.643 15.6315 28.7916 16.1973 30.0921L16.4884 30.6377C17.3235 32.158 18.1911 33.0029 19.134 33.2177C19.3329 33.26 19.534 33.2903 19.7365 33.3085C20.1297 33.3374 20.5178 33.415 20.8919 33.5396C22.2111 34.0164 22.863 35.3129 23.3876 36.3539L23.4346 36.4488C24.037 37.6407 24.9005 39.0831 26.2384 39.6515C26.5739 39.7851 26.9335 39.8475 27.2944 39.835C27.6553 39.8224 28.0097 39.7351 28.3351 39.5785C28.5338 39.4901 28.7108 39.3593 28.8537 39.1953C28.9965 39.0313 29.1018 38.838 29.1622 38.6291C29.3592 37.8377 28.8557 36.9612 28.323 36.0345C28.1608 35.7491 27.9946 35.4669 27.8495 35.1807C26.983 33.4022 26.7299 31.3868 27.1296 29.4493C27.5294 27.5118 28.5594 25.7611 30.0589 24.4707C30.2 24.3564 30.3443 24.2453 30.4886 24.1342C30.8908 23.8646 31.2451 23.5297 31.537 23.1434C31.8439 22.504 31.9863 21.798 31.9513 21.0896C31.9637 20.6036 32.0092 20.1189 32.0876 19.6391C32.2403 18.9373 32.4673 18.2537 32.7646 17.5999C33.0555 16.9852 33.2614 16.3339 33.3767 15.6637C33.4003 15.3546 33.3531 15.0442 33.2386 14.7562C33.1241 14.4681 32.9453 14.21 32.7159 14.0015C32.6375 13.9212 32.5381 13.8644 32.4291 13.8374C32.3201 13.8105 32.2058 13.8145 32.0989 13.8491C31.7456 14.045 31.4519 14.3331 31.2492 14.6826C30.9125 15.2019 30.4633 15.6389 29.9349 15.9612C29.4973 16.1724 29.0256 16.3036 28.5419 16.3488C26.5257 16.6256 24.5108 16.9066 22.4973 17.1921C20.0113 17.5399 18.4059 17.0242 17.7265 15.6556C17.4398 14.9519 17.3439 14.185 17.4484 13.4323C17.5067 12.6215 17.66 10.4704 19.3505 9.83313C20.7192 9.328 21.9857 10.2061 22.9092 10.8466L23.0876 10.9699C24.1878 11.7329 26.193 12.3418 27.0094 11.231C27.0792 11.1329 27.1432 11.0161 27.2089 10.9002C27.3625 10.5979 27.5601 10.32 27.7951 10.0756C28.4111 9.57425 29.1765 9.29239 29.9705 9.27448C30.0881 9.2607 30.2049 9.24692 30.32 9.22989C31.0057 9.18402 31.6727 8.98638 32.2727 8.65125C32.8727 8.31612 33.3908 7.85187 33.7895 7.29205C34.5581 6.04827 34.6003 4.17043 33.8973 2.00313C33.8574 1.90022 33.839 1.79024 33.8431 1.67995C33.8472 1.56966 33.8738 1.46137 33.9213 1.36171C33.9687 1.26206 34.036 1.17314 34.119 1.1004C34.202 1.02766 34.299 0.972639 34.404 0.9387C34.509 0.904761 34.6199 0.892621 34.7298 0.903024C34.8396 0.913427 34.9462 0.946154 35.043 0.9992C35.1398 1.05225 35.2248 1.12449 35.2926 1.21152C35.3605 1.29854 35.4099 1.39851 35.4378 1.5053C36.0378 3.36367 36.4781 6.02394 35.1654 8.14503C34.6471 8.90963 33.9638 9.5482 33.1659 10.0137C32.368 10.4791 31.4758 10.7596 30.5551 10.8345C30.4213 10.8539 30.2916 10.8693 30.1611 10.8848C29.7207 10.8837 29.2893 11.0083 28.9173 11.2439C28.7995 11.3818 28.6992 11.5338 28.6189 11.6964C28.5282 11.8638 28.4286 12.0261 28.3205 12.1829C26.93 14.0753 24.1132 13.6561 22.1632 12.3053L21.9824 12.1804C21.247 11.6704 20.4881 11.1442 19.9132 11.3534C19.4365 11.5342 19.1559 12.251 19.0643 13.5426C18.9927 14.0106 19.0321 14.4889 19.1795 14.9388C19.593 15.7715 21.0897 15.7496 22.2695 15.5875C24.2803 15.3037 26.3008 15.0199 28.3124 14.7434C28.607 14.7204 28.8958 14.6489 29.167 14.5318C29.4799 14.3132 29.7459 14.0342 29.9495 13.7112C30.3312 13.0861 30.9003 12.5972 31.5759 12.3142C31.9413 12.1915 32.3323 12.1662 32.7104 12.2409C33.0885 12.3155 33.4406 12.4875 33.7319 12.7399C34.1739 13.1207 34.5184 13.6019 34.7363 14.1432C34.9543 14.6845 35.0394 15.2701 34.9846 15.851C34.8567 16.6713 34.6129 17.4692 34.2605 18.221C34.0086 18.7709 33.8138 19.3453 33.6792 19.935C33.6154 20.343 33.5785 20.7547 33.5689 21.1675C33.6033 22.1599 33.3727 23.1437 32.9008 24.0175C32.5114 24.5661 32.028 25.0415 31.473 25.4218C31.3416 25.5231 31.2111 25.6229 31.0846 25.7266C29.8646 26.7761 29.0267 28.2001 28.7018 29.7762C28.3769 31.3523 28.5832 32.9916 29.2886 34.438C29.424 34.7031 29.5749 34.9642 29.7257 35.2269C30.3646 36.3369 31.0886 37.5953 30.7335 39.0207C30.6185 39.4584 30.4086 39.8655 30.1185 40.2129C29.8284 40.5603 29.4653 40.8395 29.0551 41.0307C28.4755 41.3148 27.8382 41.4616 27.1927 41.4596Z" fill="#1D1729"/>
<path d="M46.61 41.3214C46.4553 41.3212 46.304 41.2767 46.1738 41.1933C44.6932 40.2463 43.7105 38.2225 44.6284 36.4768C44.9095 35.9826 45.2681 35.5366 45.6905 35.156C45.8584 34.989 46.027 34.8236 46.177 34.6452C46.4203 34.3549 46.4454 34.1814 46.4381 34.1506C46.3149 34.0797 46.1754 34.042 46.0332 34.0413C45.8911 34.0406 45.7512 34.0769 45.6273 34.1465C44.7892 34.4906 43.8531 34.5106 43.0011 34.2027C42.1491 33.8947 41.4422 33.2808 41.0178 32.4803C40.8232 32.0395 40.7294 31.5607 40.7434 31.079C40.7575 30.5973 40.8789 30.1248 41.0989 29.696C41.289 29.287 41.5694 28.9265 41.9189 28.6416C42.2685 28.3566 42.6781 28.1546 43.117 28.0509C43.5256 27.9731 43.9423 27.9459 44.3576 27.9698C44.706 28.0073 45.0585 27.9711 45.3921 27.8636C45.6083 27.7129 45.7835 27.5107 45.9018 27.2752C46.0202 27.0398 46.078 26.7786 46.07 26.5152C46.1233 26.1418 46.0838 25.761 45.955 25.4064C45.8261 25.0519 45.6119 24.7346 45.3313 24.4825C44.8636 24.0773 44.3533 23.7238 43.8094 23.4284C43.5078 23.2492 43.2005 23.0668 42.8989 22.8673C42.7367 22.7603 42.5981 22.676 42.474 22.6014C41.4313 21.9706 41.1411 21.4963 41.3551 19.7563C41.526 18.6994 41.9469 17.6987 42.5827 16.8374C42.6881 16.6752 42.7959 16.5025 42.907 16.3274C44.4589 13.7903 44.4873 11.8598 44.5286 9.19222C44.5335 8.83222 44.5392 8.46249 44.5489 8.08141C44.55 7.97449 44.5726 7.86889 44.6152 7.77086C44.6579 7.67283 44.7199 7.58437 44.7974 7.51072C44.8749 7.43707 44.9664 7.37973 45.0665 7.3421C45.1665 7.30448 45.2732 7.28733 45.38 7.29168C45.5949 7.2972 45.7988 7.38785 45.9469 7.5437C46.095 7.69955 46.1752 7.90783 46.1697 8.12276C46.1608 8.49816 46.1551 8.86222 46.1503 9.21654C46.1089 11.9238 46.074 14.2622 44.2919 17.1763C44.18 17.3603 44.0665 17.5379 43.9554 17.713C43.4526 18.3715 43.1148 19.1408 42.9703 19.9565C42.8918 20.2867 42.8819 20.6294 42.9411 20.9636C43.0584 21.06 43.1846 21.145 43.3181 21.2174C43.46 21.3025 43.6189 21.3998 43.7989 21.519C44.0754 21.7014 44.3616 21.8709 44.643 22.0379C45.2891 22.3906 45.894 22.8143 46.4462 23.3011C46.8979 23.7171 47.2459 24.233 47.4624 24.8076C47.679 25.3822 47.758 25.9995 47.6932 26.6101C47.6989 27.1688 47.5512 27.7185 47.2663 28.1992C46.9814 28.68 46.5701 29.0734 46.0773 29.3368C45.5229 29.5576 44.9244 29.6451 44.33 29.5922C44.0415 29.5737 43.7518 29.5879 43.4665 29.6344C43.2661 29.6876 43.0804 29.7852 42.923 29.9201C42.7656 30.055 42.6407 30.2237 42.5576 30.4136C42.4464 30.6246 42.3831 30.8574 42.372 31.0956C42.361 31.3338 42.4024 31.5716 42.4935 31.7919C42.7377 32.2129 43.1252 32.5319 43.5852 32.6908C44.0452 32.8496 44.547 32.8376 44.9989 32.6571C45.4527 32.4308 45.9686 32.3609 46.4662 32.4581C46.9639 32.5553 47.4155 32.8143 47.7508 33.1946C47.9454 33.459 48.4976 34.4198 47.4224 35.6928C47.2416 35.9076 47.0405 36.1087 46.8386 36.309C46.5388 36.5744 46.2808 36.8836 46.0732 37.226C45.607 38.1138 46.2046 39.2871 47.0535 39.8303C47.2011 39.9249 47.3141 40.0648 47.3755 40.229C47.4369 40.3932 47.4435 40.5729 47.3941 40.7411C47.3448 40.9094 47.2423 41.0571 47.102 41.1621C46.9616 41.2672 46.791 41.3239 46.6157 41.3238L46.61 41.3214Z" fill="#1D1729"/>
<path d="M35.8919 48.6756C35.7012 48.6754 35.5167 48.6079 35.3708 48.4852C35.2248 48.3624 35.1269 48.1921 35.0941 48.0042C35.0226 47.5913 34.8747 47.1953 34.6578 46.8366C34.1028 45.9759 33.3088 45.2957 32.373 44.8793C31.8115 44.5696 31.1766 44.4177 30.5357 44.4399C29.6286 44.6367 28.7855 45.0583 28.0838 45.6658C26.9487 46.4661 25.67 47.3766 24.093 47.0629C23.6221 46.9523 23.1686 46.7774 22.7454 46.5431L19.6246 45.0026C19.4308 44.8898 19.2142 44.8218 18.9907 44.8036C18.7672 44.7853 18.5425 44.8173 18.333 44.8972C18.0461 45.0496 17.7941 45.2601 17.5931 45.5153C17.392 45.7705 17.2464 46.0647 17.1654 46.3793C17.1391 46.4875 17.0908 46.5892 17.0235 46.6779C16.9563 46.7666 16.8714 46.8405 16.7743 46.895C16.6772 46.9495 16.5699 46.9834 16.4591 46.9946C16.3484 47.0058 16.2365 46.9941 16.1304 46.9602C16.0244 46.9262 15.9264 46.8708 15.8427 46.7974C15.759 46.7239 15.6914 46.634 15.6439 46.5333C15.5965 46.4325 15.5703 46.3231 15.5671 46.2118C15.5638 46.1005 15.5835 45.9897 15.6249 45.8864C15.7737 45.3479 16.0363 44.8477 16.3949 44.4194C16.7535 43.9911 17.1999 43.6448 17.7038 43.4037C18.128 43.2309 18.5853 43.1543 19.0426 43.1796C19.5 43.2048 19.946 43.3312 20.3487 43.5496L23.4792 45.0983C23.7737 45.2643 24.0885 45.3913 24.4157 45.4761C25.3019 45.6545 26.1605 45.0456 27.1514 44.341C28.0785 43.5592 29.1956 43.0359 30.3897 42.8239C31.3268 42.7696 32.2606 42.9762 33.0873 43.4207C34.3035 43.9739 35.3315 44.8704 36.0451 45.9999C36.3666 46.5306 36.5866 47.1165 36.6938 47.7277C36.7122 47.8327 36.7098 47.9402 36.6866 48.0442C36.6634 48.1482 36.62 48.2466 36.5588 48.3338C36.4976 48.421 36.4198 48.4953 36.3298 48.5524C36.2399 48.6095 36.1396 48.6483 36.0346 48.6666C35.9873 48.6733 35.9396 48.6763 35.8919 48.6756Z" fill="#1D1729"/>
</svg>
