<svg width="60" height="60" viewBox="0 0 60 60" fill="none" xmlns="http://www.w3.org/2000/svg">
<path d="M24.375 53.4377C24.1402 53.437 23.9141 53.3483 23.7416 53.189C23.569 53.0297 23.4626 52.8114 23.4432 52.5773C23.4239 52.3433 23.4931 52.1105 23.6372 51.9251C23.7813 51.7396 23.9897 51.615 24.2213 51.5758L35.4713 49.7008C35.7135 49.6662 35.9597 49.7278 36.1573 49.8723C36.3548 50.0168 36.488 50.2328 36.5283 50.4742C36.5687 50.7156 36.5131 50.9632 36.3734 51.1641C36.2337 51.365 36.021 51.5034 35.7806 51.5496L24.5306 53.4246C24.4792 53.4335 24.4272 53.4379 24.375 53.4377Z" fill="#1D1729"/>
<path d="M24.375 50.6252C24.1402 50.6245 23.9141 50.5358 23.7416 50.3765C23.569 50.2172 23.4626 49.9989 23.4432 49.7648C23.4239 49.5308 23.4931 49.298 23.6372 49.1126C23.7813 48.9271 23.9897 48.8025 24.2213 48.7633L35.4713 46.8883C35.7135 46.8537 35.9597 46.9153 36.1573 47.0598C36.3548 47.2043 36.488 47.4203 36.5283 47.6617C36.5687 47.9031 36.5131 48.1507 36.3734 48.3516C36.2337 48.5525 36.021 48.6909 35.7806 48.7371L24.5306 50.6121C24.4792 50.621 24.4272 50.6254 24.375 50.6252Z" fill="#1D1729"/>
<path d="M24.375 56.2502C24.1402 56.2495 23.9141 56.1608 23.7416 56.0015C23.569 55.8422 23.4626 55.6239 23.4432 55.3898C23.4239 55.1558 23.4931 54.923 23.6372 54.7376C23.7813 54.5521 23.9897 54.4275 24.2213 54.3883L35.4713 52.5133C35.7135 52.4787 35.9597 52.5403 36.1573 52.6848C36.3548 52.8293 36.488 53.0453 36.5283 53.2867C36.5687 53.5281 36.5131 53.7757 36.3734 53.9766C36.2337 54.1775 36.021 54.3159 35.7806 54.3621L24.5306 56.2371C24.4792 56.246 24.4272 56.2504 24.375 56.2502Z" fill="#1D1729"/>
<path d="M30 60C28.7573 59.9985 27.5658 59.5042 26.6871 58.6254C25.8083 57.7467 25.314 56.5552 25.3125 55.3125C25.3125 55.0639 25.4113 54.8254 25.5871 54.6496C25.7629 54.4738 26.0014 54.375 26.25 54.375C26.4986 54.375 26.7371 54.4738 26.9129 54.6496C27.0887 54.8254 27.1875 55.0639 27.1875 55.3125C27.1875 56.0584 27.4838 56.7738 28.0113 57.3012C28.5387 57.8287 29.2541 58.125 30 58.125C30.7459 58.125 31.4613 57.8287 31.9887 57.3012C32.5162 56.7738 32.8125 56.0584 32.8125 55.3125V54.375C32.8125 54.1264 32.9113 53.8879 33.0871 53.7121C33.2629 53.5363 33.5014 53.4375 33.75 53.4375C33.9986 53.4375 34.2371 53.5363 34.4129 53.7121C34.5887 53.8879 34.6875 54.1264 34.6875 54.375V55.3125C34.686 56.5552 34.1917 57.7467 33.3129 58.6254C32.4342 59.5042 31.2427 59.9985 30 60Z" fill="#1D1729"/>
<path d="M30 4.6875C29.7514 4.6875 29.5129 4.58873 29.3371 4.41291C29.1613 4.2371 29.0625 3.99864 29.0625 3.75V0.9375C29.0625 0.68886 29.1613 0.450403 29.3371 0.274587C29.5129 0.0987721 29.7514 0 30 0C30.2486 0 30.4871 0.0987721 30.6629 0.274587C30.8387 0.450403 30.9375 0.68886 30.9375 0.9375V3.75C30.9375 3.99864 30.8387 4.2371 30.6629 4.41291C30.4871 4.58873 30.2486 4.6875 30 4.6875Z" fill="#1D1729"/>
<path d="M19.2188 7.57705C19.054 7.57721 18.8922 7.53397 18.7495 7.45168C18.6068 7.36938 18.4883 7.25095 18.4059 7.1083L16.9997 4.6708C16.8754 4.45535 16.8417 4.19934 16.9062 3.95909C16.9706 3.71884 17.1278 3.51402 17.3433 3.3897C17.5587 3.26538 17.8147 3.23174 18.055 3.29618C18.2952 3.36061 18.5001 3.51785 18.6244 3.7333L20.0306 6.1708C20.1129 6.31331 20.1562 6.47498 20.1562 6.63954C20.1562 6.80411 20.1129 6.96577 20.0306 7.10829C19.9484 7.2508 19.83 7.36915 19.6875 7.45144C19.545 7.53372 19.3833 7.57704 19.2188 7.57705Z" fill="#1D1729"/>
<path d="M11.3259 15.4686C11.1614 15.4686 10.9997 15.4253 10.8572 15.343L8.4197 13.9368C8.20425 13.8124 8.04702 13.6076 7.98258 13.3674C7.91814 13.1271 7.95178 12.8711 8.07611 12.6557C8.20043 12.4402 8.40524 12.283 8.64549 12.2185C8.88574 12.1541 9.14175 12.1877 9.3572 12.3121L11.7947 13.7183C11.9739 13.8213 12.114 13.9806 12.1933 14.1715C12.2726 14.3623 12.2866 14.574 12.2331 14.7737C12.1797 14.9733 12.0617 15.1497 11.8977 15.2753C11.7336 15.401 11.5326 15.469 11.3259 15.4686Z" fill="#1D1729"/>
<path d="M8.4375 26.25H5.625C5.37636 26.25 5.1379 26.1512 4.96209 25.9754C4.78627 25.7996 4.6875 25.5611 4.6875 25.3125C4.6875 25.0639 4.78627 24.8254 4.96209 24.6496C5.1379 24.4738 5.37636 24.375 5.625 24.375H8.4375C8.68614 24.375 8.9246 24.4738 9.10041 24.6496C9.27623 24.8254 9.375 25.0639 9.375 25.3125C9.375 25.5611 9.27623 25.7996 9.10041 25.9754C8.9246 26.1512 8.68614 26.25 8.4375 26.25Z" fill="#1D1729"/>
<path d="M8.8922 38.4377C8.68583 38.4377 8.48523 38.3696 8.32151 38.2439C8.15779 38.1183 8.0401 37.9422 7.98669 37.7428C7.93328 37.5435 7.94713 37.3321 8.0261 37.1414C8.10506 36.9508 8.24474 36.7915 8.42345 36.6883L10.861 35.2821C10.9676 35.2195 11.0856 35.1787 11.2081 35.162C11.3306 35.1452 11.4552 35.1529 11.5747 35.1845C11.6942 35.2161 11.8063 35.271 11.9046 35.3461C12.0028 35.4212 12.0852 35.515 12.147 35.6221C12.2088 35.7291 12.2488 35.8474 12.2648 35.97C12.2807 36.0926 12.2722 36.2171 12.2398 36.3365C12.2074 36.4558 12.1518 36.5675 12.076 36.6652C12.0003 36.7629 11.9059 36.8447 11.7985 36.9058L9.36095 38.3121C9.21844 38.3943 9.05677 38.4377 8.8922 38.4377Z" fill="#1D1729"/>
<path d="M51.1078 38.4377C50.9432 38.4377 50.7816 38.3943 50.6391 38.3121L48.2016 36.9058C48.0941 36.8447 47.9997 36.7629 47.924 36.6652C47.8482 36.5675 47.7926 36.4558 47.7602 36.3365C47.7278 36.2171 47.7193 36.0926 47.7352 35.97C47.7512 35.8474 47.7912 35.7291 47.853 35.6221C47.9148 35.515 47.9972 35.4212 48.0954 35.3461C48.1937 35.271 48.3058 35.2161 48.4253 35.1845C48.5448 35.1529 48.6694 35.1452 48.7919 35.162C48.9144 35.1787 49.0324 35.2195 49.1391 35.2821L51.5766 36.6883C51.7553 36.7915 51.8949 36.9508 51.9739 37.1414C52.0529 37.3321 52.0667 37.5435 52.0133 37.7428C51.9599 37.9422 51.8422 38.1183 51.6785 38.2439C51.5148 38.3696 51.3142 38.4377 51.1078 38.4377Z" fill="#1D1729"/>
<path d="M54.375 26.25H51.5625C51.3139 26.25 51.0754 26.1512 50.8996 25.9754C50.7238 25.7996 50.625 25.5611 50.625 25.3125C50.625 25.0639 50.7238 24.8254 50.8996 24.6496C51.0754 24.4738 51.3139 24.375 51.5625 24.375H54.375C54.6236 24.375 54.8621 24.4738 55.0379 24.6496C55.2137 24.8254 55.3125 25.0639 55.3125 25.3125C55.3125 25.5611 55.2137 25.7996 55.0379 25.9754C54.8621 26.1512 54.6236 26.25 54.375 26.25Z" fill="#1D1729"/>
<path d="M40.7813 7.57705C40.6167 7.57704 40.455 7.53372 40.3125 7.45144C40.17 7.36915 40.0517 7.2508 39.9694 7.10829C39.8871 6.96577 39.8438 6.80411 39.8438 6.63954C39.8438 6.47498 39.8871 6.31331 39.9694 6.1708L41.3756 3.7333C41.4999 3.51785 41.7048 3.36061 41.945 3.29618C42.1853 3.23174 42.4413 3.26538 42.6567 3.3897C42.8722 3.51402 43.0294 3.71884 43.0938 3.95909C43.1583 4.19934 43.1246 4.45535 43.0003 4.6708L41.5941 7.1083C41.5117 7.25095 41.3932 7.36938 41.2505 7.45168C41.1078 7.53397 40.946 7.57721 40.7813 7.57705Z" fill="#1D1729"/>
<path d="M17.8125 40.4999C17.5894 40.4997 17.3736 40.4199 17.2041 40.2749C13.3834 37.0239 10.9479 32.4371 10.3949 27.4511C9.84191 22.4651 11.2131 17.4561 14.2285 13.4469C17.2439 9.43777 21.676 6.73092 26.6197 5.87917C31.5635 5.02743 36.6459 6.09503 40.8291 8.86395C40.9341 8.93066 41.0248 9.01761 41.0959 9.11973C41.167 9.22185 41.217 9.3371 41.2431 9.45875C41.2692 9.58041 41.2708 9.70604 41.2478 9.82833C41.2249 9.95061 41.1778 10.0671 41.1093 10.171C41.0409 10.2749 40.9525 10.3642 40.8492 10.4335C40.7459 10.5029 40.6298 10.551 40.5078 10.5751C40.3857 10.5992 40.26 10.5987 40.1382 10.5737C40.0163 10.5487 39.9006 10.4997 39.7978 10.4296C36.013 7.92258 31.4137 6.95534 26.9397 7.72547C22.4657 8.49559 18.4545 10.945 15.7257 14.5732C12.997 18.2013 11.7565 22.7346 12.2578 27.2466C12.7591 31.7587 14.9642 35.9091 18.4228 38.8499C18.5685 38.9745 18.6725 39.1408 18.7208 39.3263C18.7691 39.5119 18.7593 39.7078 18.6928 39.8876C18.6263 40.0674 18.5062 40.2226 18.3488 40.332C18.1914 40.4415 18.0042 40.5001 17.8125 40.4999Z" fill="#1D1729"/>
<path d="M24.375 47.8127C24.1264 47.8127 23.8879 47.7139 23.7121 47.5381C23.5363 47.3623 23.4375 47.1238 23.4375 46.8752V43.8752C22.1036 43.404 20.8243 42.7905 19.6219 42.0452C19.4105 41.914 19.26 41.7043 19.2033 41.4621C19.1466 41.2199 19.1884 40.9651 19.3195 40.7538C19.4507 40.5424 19.6604 40.3919 19.9026 40.3351C20.1448 40.2785 20.3996 40.3203 20.6109 40.4514C21.8762 41.2369 23.2353 41.8599 24.6563 42.3058C24.8466 42.3657 25.0128 42.4847 25.1309 42.6455C25.2489 42.8064 25.3125 43.0007 25.3125 43.2002V45.768L34.6875 44.2061V43.2002C34.6875 43.0007 34.7511 42.8064 34.8692 42.6455C34.9872 42.4847 35.1534 42.3657 35.3438 42.3058C38.9676 41.1816 42.1349 38.9239 44.3795 35.8648C46.6241 32.8057 47.8275 29.1069 47.8125 25.3127C47.8124 24.1164 47.6933 22.923 47.4572 21.7502C47.4326 21.6295 47.432 21.5052 47.4554 21.3843C47.4788 21.2634 47.5258 21.1483 47.5937 21.0456C47.6616 20.9429 47.7491 20.8545 47.8511 20.7856C47.9532 20.7167 48.0678 20.6686 48.1884 20.6439C48.3091 20.6193 48.4334 20.6187 48.5543 20.6421C48.6752 20.6655 48.7903 20.7125 48.893 20.7804C48.9957 20.8484 49.0841 20.9358 49.153 21.0379C49.2219 21.1399 49.2701 21.2545 49.2947 21.3752C49.5562 22.6714 49.6878 23.9904 49.6875 25.3127C49.7029 29.3877 48.4468 33.366 46.0941 36.6933C43.7415 40.0206 40.4095 42.5312 36.5625 43.8752V45.0002C36.5624 45.222 36.4838 45.4365 36.3404 45.6058C36.1971 45.775 35.9984 45.888 35.7797 45.9246L24.5297 47.7996C24.4786 47.8081 24.4268 47.8125 24.375 47.8127Z" fill="#1D1729"/>
<path d="M33.75 27.1877C33.5646 27.1877 33.3834 27.1327 33.2293 27.0296C33.0751 26.9266 32.955 26.7802 32.8841 26.6089C32.8131 26.4377 32.7946 26.2492 32.8307 26.0674C32.8669 25.8855 32.9561 25.7185 33.0872 25.5874L42.4622 16.2124C42.639 16.0416 42.8758 15.9471 43.1216 15.9493C43.3675 15.9514 43.6026 16.05 43.7764 16.2238C43.9502 16.3976 44.0488 16.6328 44.051 16.8786C44.0531 17.1244 43.9586 17.3612 43.7878 17.538L34.4128 26.913C34.2371 27.0888 33.9986 27.1876 33.75 27.1877Z" fill="#1D1729"/>
<path d="M32.8125 33.7498C32.5639 33.7497 32.3255 33.6509 32.1497 33.4751L26.5247 27.8501C26.3489 27.6743 26.2502 27.4359 26.2502 27.1873C26.2502 26.9387 26.3489 26.7003 26.5247 26.5245L47.1497 5.89949C47.3255 5.72373 47.5639 5.625 47.8125 5.625C48.0611 5.625 48.2995 5.72373 48.4753 5.89949L54.1003 11.5245C54.2761 11.7003 54.3748 11.9387 54.3748 12.1873C54.3748 12.4359 54.2761 12.6743 54.1003 12.8501L33.4753 33.4751C33.2996 33.6509 33.0611 33.7497 32.8125 33.7498ZM28.5131 27.1873L32.8125 31.4867L52.1119 12.1873L47.8125 7.88792L28.5131 27.1873Z" fill="#1D1729"/>
<path d="M24.375 36.5626C24.2265 36.5627 24.08 36.5274 23.9478 36.4597C23.8155 36.3921 23.7013 36.294 23.6144 36.1735C23.5275 36.053 23.4705 35.9136 23.448 35.7667C23.4256 35.6199 23.4384 35.4698 23.4853 35.3289L26.2978 26.8914C26.3764 26.6552 26.5456 26.4598 26.7682 26.3484C26.9907 26.2369 27.2485 26.2184 27.4847 26.297C27.7209 26.3756 27.9162 26.5448 28.0277 26.7673C28.1392 26.9899 28.1576 27.2477 28.0791 27.4839L25.8591 34.1401L32.5153 31.9211C32.6323 31.8822 32.7558 31.8667 32.8787 31.8755C33.0016 31.8843 33.1217 31.9173 33.2319 31.9724C33.3421 32.0276 33.4403 32.104 33.521 32.1972C33.6017 32.2903 33.6633 32.3985 33.7022 32.5154C33.7411 32.6324 33.7566 32.7559 33.7478 32.8788C33.739 33.0018 33.706 33.1218 33.6508 33.232C33.5956 33.3422 33.5193 33.4405 33.4261 33.5212C33.3329 33.6019 33.2248 33.6634 33.1078 33.7023L24.6703 36.5148C24.5751 36.5467 24.4754 36.5628 24.375 36.5626Z" fill="#1D1729"/>
<path d="M47.8125 15.0002C47.5639 15.0001 47.3254 14.9013 47.1497 14.7255L43.3997 10.9755C43.2289 10.7987 43.1344 10.5619 43.1365 10.3161C43.1387 10.0703 43.2373 9.83513 43.4111 9.66131C43.5849 9.48749 43.82 9.38889 44.0659 9.38675C44.3117 9.38462 44.5485 9.47911 44.7253 9.64989L48.4753 13.3999C48.6064 13.531 48.6956 13.698 48.7318 13.8799C48.7679 14.0617 48.7494 14.2502 48.6784 14.4214C48.6075 14.5927 48.4874 14.7391 48.3332 14.8421C48.1791 14.9452 47.9979 15.0002 47.8125 15.0002Z" fill="#1D1729"/>
<path d="M15.9375 26.2502C15.6889 26.2502 15.4504 26.1514 15.2746 25.9756C15.0988 25.7998 15 25.5613 15 25.3127C15.007 21.8568 16.2039 18.5087 18.3893 15.8315C20.5748 13.1544 23.6155 11.3114 27 10.6127C27.2437 10.563 27.4971 10.6121 27.7046 10.7492C27.912 10.8863 28.0565 11.1003 28.1063 11.3439C28.156 11.5876 28.1069 11.8411 27.9697 12.0485C27.8326 12.256 27.6187 12.4005 27.375 12.4502C24.4134 13.0614 21.7527 14.6739 19.8404 17.0164C17.9281 19.359 16.8809 22.2887 16.875 25.3127C16.875 25.5613 16.7762 25.7998 16.6004 25.9756C16.4246 26.1514 16.1861 26.2502 15.9375 26.2502Z" fill="#1D1729"/>
</svg>
