<svg width="58" height="48" viewBox="0 0 58 48" fill="none" xmlns="http://www.w3.org/2000/svg">
<path d="M14.9338 47.2463C12.29 47.2463 10.1375 45.0938 10.1375 42.4501V28.9501C10.1375 28.5151 10.49 28.1626 10.925 28.1626C11.36 28.1626 11.7125 28.5151 11.7125 28.9501V42.4538C11.7125 44.2313 13.1563 45.6751 14.9338 45.6751C16.7113 45.6751 18.155 44.2313 18.155 42.4538V28.9501C18.155 28.5151 18.5075 28.1626 18.9425 28.1626C19.3775 28.1626 19.73 28.5151 19.73 28.9501V42.4538C19.73 45.0976 17.5775 47.2463 14.9338 47.2463Z" fill="#1D1729"/>
<path d="M23.1312 29.7375H8.94873C6.43623 29.7375 4.38873 27.6937 4.38873 25.1775V12.915C4.38873 10.4025 6.43248 8.35498 8.94873 8.35498H23.1275C23.5625 8.35498 23.915 8.70748 23.915 9.14248V28.95C23.9187 29.385 23.5662 29.7375 23.1312 29.7375ZM8.94873 9.93373C7.30248 9.93373 5.96373 11.2725 5.96373 12.9187V25.1812C5.96373 26.8275 7.30248 28.1662 8.94873 28.1662H22.34V9.93373H8.94873Z" fill="#1D1729"/>
<path d="M43.9213 37.3424C43.8313 37.3424 43.7375 37.3274 43.6512 37.2937L22.8612 29.6887C22.55 29.5762 22.3438 29.2799 22.3438 28.9499V9.14616C22.3438 8.81616 22.55 8.51991 22.8612 8.40741L43.6512 0.802412C43.8912 0.712412 44.1613 0.749912 44.3713 0.896162C44.5813 1.04241 44.7088 1.28616 44.7088 1.54116V36.5549C44.7088 36.8137 44.585 37.0537 44.3713 37.1999C44.2363 37.2937 44.0788 37.3424 43.9213 37.3424ZM23.9188 28.3987L43.1338 35.4299V2.66616L23.9188 9.69741V28.3987Z" fill="#1D1729"/>
<path d="M39.7512 35.8164C39.3162 35.8164 38.9637 35.4639 38.9637 35.0289V3.06387C38.9637 2.62887 39.3162 2.27637 39.7512 2.27637C40.1862 2.27637 40.5387 2.62887 40.5387 3.06387V35.0289C40.5387 35.4639 40.1862 35.8164 39.7512 35.8164Z" fill="#1D1729"/>
<path d="M43.9175 23.8422C43.4937 23.8422 43.145 23.5047 43.13 23.0809C43.115 22.6459 43.4562 22.2822 43.8912 22.2672C45.6312 22.2109 47.03 20.7447 47.0037 19.0009C46.9812 17.3134 45.5937 15.8922 43.91 15.8284C43.9062 15.8284 43.9025 15.8284 43.8987 15.8284C43.4712 15.8209 43.13 15.4722 43.13 15.0409C43.13 14.6059 43.4825 14.2534 43.9175 14.2534H43.9512H43.9625C45.1925 14.2984 46.3437 14.8122 47.21 15.6972C48.0762 16.5859 48.5637 17.7484 48.5787 18.9784C48.5975 20.2459 48.125 21.4497 47.2475 22.3647C46.3737 23.2759 45.2 23.8009 43.94 23.8422C43.9362 23.8422 43.9287 23.8422 43.9175 23.8422Z" fill="#1D1729"/>
<path d="M5.17625 24.0372H3.1625C1.59125 24.0372 0.3125 22.7584 0.3125 21.1872V16.9047C0.3125 15.3334 1.59125 14.0547 3.1625 14.0547H5.17625C5.61125 14.0547 5.96375 14.4072 5.96375 14.8422V23.2497C5.96375 23.6847 5.61125 24.0372 5.17625 24.0372ZM3.1625 15.6297C2.46125 15.6297 1.8875 16.2034 1.8875 16.9047V21.1872C1.8875 21.8884 2.46125 22.4622 3.1625 22.4622H4.38875V15.6297H3.1625Z" fill="#1D1729"/>
<path d="M56.9 19.8338H52.49C52.055 19.8338 51.7025 19.4813 51.7025 19.0463C51.7025 18.6113 52.055 18.2588 52.49 18.2588H56.9C57.335 18.2588 57.6875 18.6113 57.6875 19.0463C57.6875 19.4813 57.335 19.8338 56.9 19.8338Z" fill="#1D1729"/>
<path d="M50.375 14.5237C50.1725 14.5237 49.9737 14.4449 49.82 14.2912C49.5125 13.9837 49.5125 13.4849 49.82 13.1774L52.9362 10.0612C53.2437 9.75369 53.7425 9.75369 54.05 10.0612C54.3575 10.3687 54.3575 10.8674 54.05 11.1749L50.9337 14.2912C50.78 14.4449 50.5775 14.5237 50.375 14.5237Z" fill="#1D1729"/>
<path d="M53.3488 28.2039C53.1463 28.2039 52.9475 28.1289 52.7938 27.9714L49.6775 24.8551C49.37 24.5476 49.37 24.0489 49.6775 23.7414C49.985 23.4339 50.4838 23.4339 50.7913 23.7414L53.9075 26.8576C54.215 27.1651 54.215 27.6639 53.9075 27.9714C53.75 28.1289 53.5513 28.2039 53.3488 28.2039Z" fill="#1D1729"/>
</svg>
