<svg width="50" height="54" viewBox="0 0 50 54" fill="none" xmlns="http://www.w3.org/2000/svg">
<path d="M15.7274 42.8343C16.3111 42.0972 16.71 41.231 16.8906 40.3082C17.0712 39.3854 17.0284 38.4328 16.7656 37.53C16.5029 36.6272 16.0279 35.8003 15.3803 35.1185C14.7328 34.4368 13.9315 33.9199 13.0433 33.611C12.1552 33.3022 11.2061 33.2104 10.2752 33.3433C9.34437 33.4763 8.45885 33.83 7.69265 34.3751C6.92645 34.9201 6.30182 35.6406 5.87095 36.4764C5.44008 37.3122 5.21549 38.2389 5.21594 39.1792C5.21582 40.5069 5.66643 41.7953 6.49401 42.8335C4.98195 43.5773 3.66841 44.67 2.66174 46.0214C1.65506 47.3728 0.984108 48.9442 0.704219 50.6059C0.650642 50.9311 0.668403 51.2641 0.75627 51.5818C0.844137 51.8995 1.00001 52.1943 1.2131 52.4458C1.42618 52.6973 1.69139 52.8995 1.99034 53.0383C2.2893 53.1772 2.61486 53.2494 2.94449 53.2499H19.2756C19.605 53.2477 19.9301 53.1744 20.2286 53.035C20.5271 52.8957 20.7921 52.6936 21.0053 52.4425C21.2186 52.1914 21.3752 51.8973 21.4644 51.5802C21.5536 51.263 21.5734 50.9304 21.5223 50.605C21.2399 48.9437 20.5673 47.3731 19.5599 46.0223C18.5526 44.6714 17.2391 43.5789 15.7274 42.8343ZM11.111 35.1592C12.1709 35.1687 13.1841 35.5965 13.9302 36.3494C14.6763 37.1023 15.0949 38.1193 15.0949 39.1793C15.0949 40.2392 14.6763 41.2563 13.9301 42.0091C13.184 42.762 12.1708 43.1898 11.1109 43.1993C10.0505 43.1904 9.03661 42.763 8.28993 42.01C7.54326 41.257 7.12432 40.2396 7.12433 39.1792C7.12434 38.1188 7.54331 37.1013 8.29 36.3484C9.03669 35.5954 10.0506 35.168 11.111 35.1592ZM19.5819 51.2339C19.5443 51.2784 19.4973 51.3141 19.4444 51.3384C19.3915 51.3628 19.3339 51.3752 19.2756 51.3749H2.94449C2.65279 51.341 2.54488 51.1963 2.55489 50.9071C2.80932 49.4083 3.45131 48.002 4.41713 46.8279C5.38295 45.6538 6.63902 44.7527 8.06069 44.214C8.97852 44.7765 10.034 45.0742 11.1105 45.0743C12.1869 45.0744 13.2424 44.7769 14.1604 44.2146C15.5821 44.7543 16.8383 45.6556 17.8049 46.8295C18.7716 48.0034 19.4152 49.4092 19.6721 50.9081C19.6818 50.9657 19.6788 51.0247 19.6632 51.081C19.6477 51.1373 19.6199 51.1895 19.5819 51.2339Z" fill="#1D1729"/>
<path d="M16.8312 20.7158H33.1624C33.4925 20.716 33.8187 20.6444 34.1184 20.5059C34.418 20.3674 34.684 20.1654 34.8977 19.9138C35.1115 19.6622 35.2679 19.3672 35.3562 19.0491C35.4445 18.731 35.4626 18.3975 35.4091 18.0717C35.1265 16.4104 34.4539 14.8397 33.4465 13.4888C32.4391 12.1378 31.1256 11.0451 29.6139 10.3003C30.1977 9.56322 30.5966 8.69707 30.7772 7.77429C30.9579 6.8515 30.9151 5.89888 30.6524 4.99602C30.3897 4.09316 29.9147 3.26628 29.2672 2.58448C28.6196 1.90268 27.8183 1.38576 26.9302 1.07691C26.042 0.768058 25.0929 0.676249 24.162 0.809153C23.2311 0.942057 22.3456 1.29581 21.5794 1.84087C20.8132 2.38592 20.1885 3.10643 19.7577 3.9422C19.3268 4.77798 19.1022 5.70473 19.1026 6.64503C19.1025 7.97273 19.5531 9.26114 20.3807 10.2993C18.8685 11.0432 17.5548 12.136 16.5481 13.4876C15.5415 14.8392 14.8706 16.4108 14.5909 18.0727C14.54 18.3975 14.5596 18.7295 14.6485 19.046C14.7374 19.3625 14.8935 19.6562 15.1061 19.907C15.3186 20.1578 15.5828 20.3599 15.8805 20.4995C16.1782 20.639 16.5024 20.7128 16.8312 20.7158ZM24.9977 2.62497C26.0576 2.63456 27.0708 3.06233 27.8169 3.81521C28.563 4.56809 28.9816 5.58515 28.9816 6.6451C28.9816 7.70504 28.563 8.72209 27.8169 9.47495C27.0708 10.2278 26.0575 10.6556 24.9976 10.6651C23.9377 10.6555 22.9245 10.2278 22.1784 9.47489C21.4323 8.72201 21.0137 7.70495 21.0137 6.645C21.0138 5.58506 21.4324 4.56801 22.1785 3.81514C22.9246 3.06228 23.9378 2.63453 24.9977 2.62497ZM21.9474 11.6799C22.8675 12.2359 23.9221 12.5298 24.9972 12.5299C26.0722 12.53 27.1269 12.2362 28.0471 11.6804C29.4688 12.2203 30.725 13.1218 31.6917 14.2959C32.6583 15.4699 33.3019 16.8759 33.5588 18.3748C33.5705 18.4325 33.569 18.4922 33.5543 18.5492C33.5395 18.6063 33.5121 18.6593 33.4739 18.7042C33.4357 18.749 33.3878 18.7847 33.3339 18.8083C33.2799 18.832 33.2213 18.8431 33.1624 18.8408H16.8312C16.7741 18.8408 16.7178 18.8284 16.6661 18.8043C16.6144 18.7803 16.5686 18.7452 16.5318 18.7017C16.4937 18.657 16.4658 18.6045 16.4502 18.5478C16.4346 18.4912 16.4317 18.4318 16.4416 18.3739C16.696 16.8749 17.338 15.4685 18.3038 14.2943C19.2696 13.1201 20.5257 12.2188 21.9474 11.6799Z" fill="#1D1729"/>
<path d="M49.2958 50.605C49.0133 48.9437 48.3407 47.3731 47.3332 46.0223C46.3257 44.6715 45.0122 43.5789 43.5004 42.8344C44.3284 41.796 44.7792 40.5073 44.7791 39.1793C44.5036 31.3808 33.2664 31.376 32.9893 39.1794C32.9892 40.507 33.4399 41.7954 34.2674 42.8336C32.7554 43.5774 31.4418 44.6701 30.4351 46.0215C29.4285 47.3729 28.7575 48.9443 28.4776 50.606C28.4241 50.9312 28.4418 51.2642 28.5297 51.5818C28.6175 51.8995 28.7733 52.1942 28.9864 52.4457C29.1994 52.6972 29.4646 52.8994 29.7635 53.0382C30.0624 53.1771 30.3879 53.2494 30.7175 53.25H47.0491C47.3785 53.2477 47.7036 53.1745 48.0021 53.0351C48.3006 52.8958 48.5655 52.6937 48.7788 52.4426C48.9921 52.1915 49.1487 51.8974 49.2379 51.5802C49.3271 51.2631 49.3469 50.9305 49.2958 50.605ZM38.8844 35.1592C39.9443 35.1687 40.9576 35.5965 41.7037 36.3494C42.4498 37.1023 42.8683 38.1193 42.8683 39.1793C42.8683 40.2392 42.4497 41.2563 41.7036 42.0091C40.9575 42.762 39.9443 43.1898 38.8844 43.1993C37.8245 43.1897 36.8112 42.762 36.0651 42.0091C35.3191 41.2562 34.9005 40.2392 34.9005 39.1792C34.9005 38.1193 35.3191 37.1022 36.0652 36.3494C36.8113 35.5965 37.8245 35.1687 38.8844 35.1592ZM47.3553 51.234C47.3177 51.2785 47.2708 51.3141 47.2179 51.3385C47.1649 51.3628 47.1073 51.3753 47.0491 51.375H30.7175C30.426 51.341 30.3184 51.1961 30.3283 50.9072C30.5828 49.4083 31.2247 48.0021 32.1906 46.828C33.1564 45.6539 34.4125 44.7528 35.8341 44.2141C36.7519 44.7765 37.8074 45.0742 38.8838 45.0743C39.9602 45.0744 41.0157 44.7769 41.9337 44.2146C43.3553 44.7544 44.6115 45.6557 45.5782 46.8296C46.5448 48.0035 47.1885 49.4093 47.4455 50.9081C47.4553 50.9657 47.4523 51.0248 47.4367 51.0811C47.4211 51.1374 47.3933 51.1896 47.3553 51.234Z" fill="#1D1729"/>
<path d="M37.9492 30.3894C37.9529 30.6357 38.0532 30.8706 38.2287 31.0434C38.4041 31.2162 38.6405 31.3131 38.8867 31.3131C39.133 31.3131 39.3693 31.2162 39.5448 31.0434C39.7202 30.8706 39.8206 30.6357 39.8242 30.3894V27.6355C39.8242 27.5124 39.8 27.3905 39.7529 27.2767C39.7058 27.163 39.6368 27.0596 39.5497 26.9725C39.4626 26.8855 39.3593 26.8164 39.2455 26.7693C39.1318 26.7222 39.0098 26.698 38.8867 26.698H25.9352V23.6108C25.9352 23.3622 25.8364 23.1237 25.6606 22.9479C25.4848 22.7721 25.2464 22.6733 24.9977 22.6733C24.7491 22.6733 24.5106 22.7721 24.3348 22.9479C24.159 23.1237 24.0602 23.3622 24.0602 23.6108V26.698H11.111C10.9879 26.698 10.8659 26.7222 10.7522 26.7693C10.6384 26.8164 10.5351 26.8855 10.448 26.9725C10.3609 27.0596 10.2919 27.163 10.2448 27.2767C10.1977 27.3905 10.1735 27.5124 10.1735 27.6355V30.3894C10.178 30.6351 10.2788 30.8691 10.4541 31.0412C10.6295 31.2134 10.8653 31.3098 11.111 31.3098C11.3567 31.3098 11.5926 31.2133 11.7679 31.0412C11.9432 30.8691 12.044 30.635 12.0485 30.3894V28.573H37.9492V30.3894Z" fill="#1D1729"/>
</svg>
