<svg width="60" height="60" viewBox="0 0 60 60" fill="none" xmlns="http://www.w3.org/2000/svg">
<path d="M57.1875 23.3456H52.8834C52.395 21.6656 51.7266 20.0484 50.8875 18.5231L53.9306 15.48C54.2972 15.1134 54.2972 14.5209 53.9306 14.1544L45.8456 6.06938C45.4791 5.70281 44.8866 5.70281 44.52 6.06938L41.4769 9.1125C39.9525 8.2725 38.3353 7.60406 36.6553 7.11656V2.8125C36.6553 2.295 36.2353 1.875 35.7178 1.875H24.2841C23.7666 1.875 23.3466 2.295 23.3466 2.8125V7.11656C21.6666 7.605 20.0494 8.27344 18.525 9.1125L15.4819 6.06938C15.1153 5.70281 14.5228 5.70281 14.1562 6.06938L6.07031 14.1553C5.70375 14.5219 5.70375 15.1144 6.07031 15.4809L9.11344 18.5241C8.27344 20.0494 7.605 21.6656 7.1175 23.3466H2.8125C2.295 23.3466 1.875 23.7666 1.875 24.2841V35.7178C1.875 36.2353 2.295 36.6553 2.8125 36.6553H7.1175C7.605 38.3353 8.27437 39.9525 9.11344 41.4769L6.07031 44.52C5.70375 44.8866 5.70375 45.4791 6.07031 45.8456L14.1553 53.9306C14.5219 54.2972 15.1144 54.2972 15.4809 53.9306L18.5241 50.8875C20.0494 51.7275 21.6656 52.3959 23.3466 52.8834V57.1875C23.3466 57.705 23.7666 58.125 24.2841 58.125H35.7178C36.2353 58.125 36.6553 57.705 36.6553 57.1875V52.8834C38.3353 52.395 39.9525 51.7266 41.4769 50.8875L44.52 53.9306C44.8866 54.2972 45.4791 54.2972 45.8456 53.9306L53.9306 45.8456C54.2972 45.4791 54.2972 44.8866 53.9306 44.52L50.8875 41.4769C51.7266 39.9525 52.3959 38.3353 52.8834 36.6553H57.1884C57.7059 36.6553 58.1259 36.2353 58.1259 35.7178V24.2841C58.1259 23.7666 57.7059 23.3466 57.1884 23.3466L57.1875 23.3456ZM56.25 34.7794H52.1681C51.7406 34.7794 51.3675 35.0691 51.2606 35.4825C50.7459 37.4831 49.9556 39.3909 48.9122 41.1553C48.6947 41.5237 48.7537 41.9934 49.0566 42.2953L51.9422 45.1819L45.1838 51.9403L42.2972 49.0547C41.9953 48.7528 41.5275 48.6928 41.1572 48.9103C39.3928 49.9538 37.485 50.7441 35.4853 51.2587C35.0709 51.3656 34.7812 51.7388 34.7812 52.1663V56.2481H25.2225V52.1663C25.2225 51.7388 24.9328 51.3656 24.5184 51.2587C22.5197 50.7441 20.6109 49.9538 18.8456 48.9103C18.4762 48.6919 18.0075 48.7519 17.7056 49.0547L14.82 51.9403L8.06156 45.1819L10.9472 42.2953C11.25 41.9925 11.3091 41.5237 11.0916 41.1553C10.0481 39.3919 9.25781 37.4831 8.74312 35.4825C8.63625 35.0681 8.26312 34.7794 7.83562 34.7794H3.75375V25.2206H7.83562C8.26312 25.2206 8.63625 24.9309 8.74312 24.5166C9.25781 22.5178 10.0481 20.6091 11.0916 18.8438C11.3091 18.4753 11.25 18.0066 10.9472 17.7038L8.06156 14.8181L14.82 8.05969L17.7066 10.9453C18.0094 11.2481 18.4772 11.3081 18.8466 11.0897C20.6109 10.0463 22.5187 9.25594 24.5184 8.74125C24.9328 8.63438 25.2225 8.26125 25.2225 7.83375V3.75187H34.7812V7.83375C34.7812 8.26125 35.0709 8.63438 35.4853 8.74125C37.485 9.25594 39.3928 10.0463 41.1572 11.0897C41.5266 11.3072 41.9944 11.2472 42.2972 10.9453L45.1838 8.05969L51.9422 14.8181L49.0566 17.7038C48.7537 18.0066 48.6947 18.4753 48.9122 18.8438C49.9556 20.6091 50.7459 22.5178 51.2606 24.5166C51.3675 24.9309 51.7406 25.2206 52.1681 25.2206H56.25V34.7794Z" fill="#1D1729"/>
<path d="M30 12.1577C20.1609 12.1577 12.1575 20.1621 12.1575 30.0002C12.1575 39.0733 18.9703 46.5705 27.7463 47.6843C27.7575 47.6843 27.7669 47.6908 27.7781 47.6908H27.7828C28.5113 47.7818 29.2481 47.8437 30 47.8437C39.8391 47.8437 47.8425 39.8393 47.8425 30.0012C47.8425 20.163 39.8381 12.1577 30 12.1577ZM35.8903 26.1743H34.7325V23.7321H35.8903V26.1743ZM32.8575 27.1118C32.8575 27.8796 32.2322 28.504 31.4653 28.504H29.1066C28.5384 28.504 28.0322 28.1646 27.8175 27.6377L27.7388 27.4437C27.2109 26.1527 25.9688 25.3174 24.5738 25.3174C23.6794 25.3174 22.8347 25.6596 22.1934 26.2821L19.0369 29.3421C19.3744 27.5918 20.2153 25.9718 21.4959 24.648C23.3072 22.7758 25.74 21.7446 28.3472 21.7446H31.8084C32.3869 21.7446 32.8584 22.2152 32.8584 22.7946L32.8575 27.1118ZM28.7156 45.903V30.3499C28.845 30.3649 28.9744 30.379 29.1066 30.379H30.8625V45.9237C30.5756 45.9387 30.2916 45.9677 30 45.9677C29.5669 45.9677 29.1403 45.9368 28.7156 45.903ZM32.7375 45.7165V30.1221C33.6244 29.7462 34.2975 28.9821 34.5797 28.0502H35.9944C36.27 28.968 37.1128 29.643 38.1188 29.643H39.9047C41.1338 29.643 42.1331 28.6437 42.1331 27.4146V22.699C42.1331 21.4699 41.1338 20.4705 39.9047 20.4705H38.1188C37.1878 20.4705 36.3909 21.0452 36.0581 21.858H34.5647C34.1719 20.7068 33.0909 19.8705 31.8084 19.8705H28.3472C25.2272 19.8705 22.3163 21.1043 20.1478 23.3458C18.0178 25.548 16.9003 28.4346 17.0016 31.473L17.0119 31.7487C17.0297 32.1171 17.2603 32.4405 17.6034 32.5765C17.715 32.6205 17.8322 32.6421 17.9484 32.6421C18.1875 32.6421 18.4228 32.5502 18.6009 32.3777L23.4984 27.6302C23.7881 27.3499 24.1697 27.1952 24.5728 27.1952C25.2028 27.1952 25.7644 27.5721 26.0025 28.1562L26.0813 28.3502C26.2575 28.7805 26.52 29.1537 26.8397 29.4621V45.6536C19.5431 44.1827 14.0316 37.7252 14.0316 30.003C14.0316 21.198 21.195 14.0355 29.9991 14.0355C38.8031 14.0355 45.9666 21.199 45.9666 30.003C45.9666 37.8724 40.2384 44.4143 32.7366 45.7183L32.7375 45.7165ZM37.7653 27.1127V22.699C37.7653 22.504 37.9238 22.3455 38.1188 22.3455H39.9047C40.0997 22.3455 40.2581 22.504 40.2581 22.699V27.4146C40.2581 27.6096 40.0997 27.768 39.9047 27.768H38.1188C37.9238 27.768 37.7653 27.6096 37.7653 27.4146V27.1127Z" fill="#1D1729"/>
</svg>
