<svg width="60" height="60" viewBox="0 0 60 60" fill="none" xmlns="http://www.w3.org/2000/svg">
<g clip-path="url(#clip0_24_850)">
<path d="M14.2266 13.3273C14.0123 13.3682 13.819 13.4825 13.68 13.6506C13.5409 13.8187 13.4649 14.03 13.4649 14.2481V18.8223C13.4649 19.0404 13.5409 19.2518 13.68 19.4198C13.819 19.5879 14.0123 19.7023 14.2266 19.7432L16.8523 20.2447C17.1432 21.2776 17.5556 22.2722 18.0811 23.2078L16.5782 25.4204C16.4556 25.6009 16.3998 25.8184 16.4204 26.0355C16.4409 26.2527 16.5366 26.4559 16.6908 26.6101L19.9252 29.8445C20.0794 29.9987 20.2826 30.0944 20.4998 30.1149C20.7169 30.1355 20.9344 30.0797 21.1149 29.9571L23.3275 28.4543C24.4428 29.0805 25.6411 29.5457 26.8868 29.8359C26.8946 29.8378 26.9022 29.8386 26.9103 29.8402V33.0069C26.9103 33.2556 27.009 33.494 27.1848 33.6698C27.3607 33.8456 27.5991 33.9444 27.8478 33.9444H32.5827C32.8314 33.9444 33.0698 33.8456 33.2456 33.6698C33.4214 33.494 33.5202 33.2556 33.5202 33.0069V29.7341C34.6206 29.4417 35.6798 29.0116 36.6726 28.4542L38.8853 29.9571C39.0657 30.0797 39.2832 30.1355 39.5004 30.1149C39.7176 30.0944 39.9207 29.9987 40.075 29.8445L43.3094 26.6101C43.4636 26.4559 43.5592 26.2527 43.5798 26.0355C43.6003 25.8184 43.5445 25.6009 43.422 25.4204L41.9189 23.2078C42.4445 22.2723 42.857 21.2776 43.1478 20.2447L45.7736 19.7432C45.9878 19.7023 46.1811 19.5879 46.3202 19.4198C46.4592 19.2518 46.5353 19.0404 46.5353 18.8223V14.2481C46.5353 14.03 46.4592 13.8187 46.3202 13.6506C46.1811 13.4825 45.9878 13.3682 45.7736 13.3273L43.1478 12.8257C42.857 11.7928 42.4445 10.7982 41.9189 9.86273L43.422 7.65C43.5445 7.46956 43.6003 7.25204 43.5798 7.03489C43.5592 6.81773 43.4636 6.61455 43.3094 6.46031L40.075 3.22594C39.9207 3.07172 39.7175 2.97611 39.5004 2.95557C39.2832 2.93504 39.0657 2.99086 38.8853 3.11344L36.6724 4.61625C35.737 4.0907 34.7423 3.6782 33.7095 3.38742L33.2079 0.761719C33.167 0.547469 33.0527 0.354185 32.8846 0.215149C32.7166 0.0761142 32.5053 3.04503e-05 32.2872 0L27.7129 0C27.4948 3.04503e-05 27.2835 0.0761142 27.1154 0.215149C26.9473 0.354185 26.833 0.547469 26.7921 0.761719L26.2906 3.38742C25.2577 3.67828 24.2631 4.09082 23.3276 4.61637L21.1149 3.11332C20.9344 2.99075 20.7169 2.93492 20.4998 2.95545C20.2826 2.97599 20.0794 3.0716 19.9252 3.22582L16.6908 6.4602C16.5366 6.61442 16.441 6.81759 16.4204 7.03471C16.3999 7.25184 16.4557 7.46934 16.5782 7.64977L18.0811 9.8625C17.5556 10.798 17.1431 11.7927 16.8524 12.8256L14.2266 13.3273ZM31.645 23.3116V32.0705H28.7856V23.4544C28.7856 23.2528 28.7206 23.0566 28.6003 22.8949C28.4799 22.7332 28.3107 22.6146 28.1176 22.5566C26.8818 22.1842 25.7841 21.4538 24.9633 20.4576C24.1425 19.4615 23.6354 18.2444 23.5062 16.9601C23.3771 15.6759 23.6315 14.3821 24.2375 13.2425C24.8434 12.1028 25.7737 11.1684 26.9106 10.5573V15.4596C26.9106 16.3361 27.2588 17.1768 27.8786 17.7966C28.4984 18.4164 29.3391 18.7646 30.2156 18.7646C31.0921 18.7646 31.9328 18.4164 32.5526 17.7966C33.1724 17.1768 33.5206 16.3361 33.5206 15.4596V10.809C34.5434 11.4643 35.3632 12.3919 35.8876 13.4875C36.4121 14.5832 36.6205 15.8034 36.4894 17.011C36.3583 18.2187 35.8929 19.3658 35.1455 20.3233C34.3982 21.2809 33.3984 22.011 32.2588 22.4314C32.0788 22.4976 31.9234 22.6175 31.8136 22.7748C31.7038 22.9321 31.6449 23.1192 31.6449 23.3111L31.645 23.3116ZM18.5248 13.8479C18.8157 12.6008 19.3095 11.4099 19.9866 10.3228C20.0824 10.1688 20.1315 9.99022 20.1278 9.80884C20.1242 9.62745 20.068 9.45102 19.9661 9.30094L18.5647 7.23844L20.7027 5.1L22.7652 6.50121C22.9153 6.60313 23.0917 6.65933 23.273 6.66299C23.4544 6.66665 23.6329 6.61762 23.787 6.52184C24.874 5.84473 26.065 5.35085 27.3122 5.05992C27.4888 5.0187 27.6497 4.92712 27.7754 4.79629C27.901 4.66545 27.986 4.50098 28.02 4.32281L28.4883 1.875H31.5117L31.9794 4.32281C32.0134 4.50097 32.0984 4.66543 32.224 4.79626C32.3496 4.92709 32.5105 5.01868 32.6871 5.05992C33.9343 5.35089 35.1252 5.84473 36.2124 6.52172C36.3664 6.61754 36.545 6.66661 36.7263 6.66297C36.9077 6.65933 37.0842 6.60314 37.2342 6.50121L39.2967 5.1L41.4347 7.23785L40.0333 9.30035C39.9313 9.45041 39.8751 9.62681 39.8715 9.80817C39.8678 9.98953 39.9169 10.1681 40.0126 10.3221C40.6898 11.4092 41.1837 12.6001 41.4747 13.8473C41.5159 14.024 41.6074 14.1849 41.7383 14.3106C41.8691 14.4362 42.0336 14.5212 42.2118 14.5553L44.6602 15.0234V18.0469L42.2124 18.5146C42.0342 18.5486 41.8697 18.6336 41.7389 18.7592C41.6081 18.8848 41.5165 19.0457 41.4753 19.2224C41.1844 20.4696 40.6905 21.6606 40.0133 22.7476C39.9175 22.9017 39.8685 23.0802 39.8722 23.2616C39.8758 23.443 39.932 23.6194 40.034 23.7695L41.4353 25.832L39.2973 27.9698L37.2348 26.5686C37.0848 26.4667 36.9084 26.4105 36.727 26.4069C36.5456 26.4032 36.3671 26.4522 36.2131 26.548C35.3714 27.0715 34.4666 27.486 33.5204 27.7814V23.9364C35.0293 23.2398 36.2978 22.1116 37.1655 20.6943C38.0333 19.2771 38.4615 17.6343 38.3958 15.9738C38.3302 14.3132 37.7738 12.7094 36.7969 11.365C35.82 10.0206 34.4664 8.99604 32.9073 8.42074C32.7656 8.36848 32.6134 8.35123 32.4635 8.37047C32.3137 8.38971 32.1708 8.44487 32.0468 8.53125C31.9229 8.61763 31.8217 8.73267 31.7518 8.86658C31.6819 9.00049 31.6454 9.1493 31.6454 9.30035V15.4597C31.6454 15.8389 31.4948 16.2025 31.2267 16.4707C30.9586 16.7388 30.5949 16.8894 30.2158 16.8894C29.8366 16.8894 29.4729 16.7388 29.2048 16.4707C28.9367 16.2025 28.7861 15.8389 28.7861 15.4597V9.15691C28.7861 9.01077 28.7519 8.86664 28.6862 8.73606C28.6206 8.60548 28.5253 8.49205 28.4081 8.40482C28.2908 8.3176 28.1548 8.259 28.0108 8.23371C27.8669 8.20841 27.719 8.21712 27.579 8.25914C25.871 8.77853 24.3708 9.82442 23.2927 11.2474C22.194 12.7048 21.5997 14.4803 21.5997 16.3055C21.5997 18.1306 22.194 19.9061 23.2927 21.3635C24.2257 22.5944 25.4769 23.5472 26.9115 24.1194V27.9076C25.81 27.6093 24.7581 27.1513 23.7892 26.5482C23.6351 26.4524 23.4566 26.4034 23.2752 26.4071C23.0938 26.4107 22.9174 26.4669 22.7673 26.5689L20.7048 27.9701L18.5669 25.8322L19.9682 23.7697C20.0701 23.6197 20.1263 23.4433 20.13 23.2619C20.1336 23.0805 20.0846 22.902 19.9888 22.748C19.3117 21.6609 18.8178 20.47 18.5269 19.2227C18.4857 19.0461 18.3941 18.8852 18.2633 18.7595C18.1325 18.6338 17.968 18.5488 17.7898 18.5148L15.3399 18.0469V15.0234L17.7877 14.5559C17.9659 14.5218 18.1303 14.4368 18.2612 14.3112C18.392 14.1855 18.4836 14.0246 18.5248 13.8479ZM10.2071 28.1179C9.74968 28.0913 9.2916 28.1559 8.85939 28.3078L6.45705 16.9247C6.44095 16.8483 6.41536 16.7742 6.38088 16.7041C6.12182 16.1779 5.7033 15.7469 5.18495 15.4724C4.6666 15.198 4.07486 15.0941 3.49403 15.1756C2.9132 15.2571 2.3729 15.5199 1.95012 15.9264C1.52734 16.3329 1.24364 16.8625 1.13943 17.4397C1.12656 17.5108 1.12196 17.5831 1.12572 17.6552L2.19037 38.0039C2.21849 38.697 2.42929 39.3703 2.8014 39.9557C3.17352 40.5411 3.69373 41.0177 4.30936 41.3373L10.6726 44.7357C10.7203 44.7582 10.7621 44.7912 10.7948 44.8324C10.8276 44.8736 10.8505 44.9217 10.8617 44.9732L12.1024 49.5618L11.241 50.0592C10.867 50.2757 10.5942 50.6317 10.4823 51.0491C10.3705 51.4666 10.4288 51.9113 10.6444 52.2858L14.6275 59.1848C14.7341 59.3705 14.8766 59.5332 15.0465 59.6634C15.2165 59.7937 15.4106 59.8889 15.6176 59.9436C15.7564 59.9811 15.8996 60 16.0433 60.0001C16.3282 60 16.6079 59.9246 16.8543 59.7817L28.4324 53.0968C28.8064 52.8803 29.0792 52.5243 29.1911 52.1069C29.303 51.6895 29.2448 51.2448 29.0292 50.8703L25.0459 43.9712C24.8294 43.5972 24.4734 43.3244 24.056 43.2125C23.6386 43.1006 23.1939 43.1588 22.8194 43.3744L22.7725 43.4014L22.2161 38.4871C22.1597 37.9411 21.9895 37.413 21.7165 36.9369C21.4435 36.4607 21.0736 36.0471 20.6309 35.7227L10.7131 28.3031C10.5662 28.1932 10.3902 28.1288 10.2071 28.1179ZM27.283 51.5958L16.1287 58.0358L12.3904 51.5607L23.5447 45.1208L27.283 51.5958ZM20.3529 38.6982L21.0012 44.4241L13.7824 48.592L12.6713 44.4844C12.5937 44.1856 12.4544 43.9065 12.2622 43.665C12.07 43.4235 11.8293 43.225 11.5556 43.0823L5.19236 39.6839C4.86234 39.5157 4.58346 39.262 4.38475 38.9494C4.18604 38.6368 4.07478 38.2766 4.06256 37.9064L3.00541 17.685C3.05359 17.5159 3.14965 17.3644 3.28202 17.2487C3.41438 17.133 3.5774 17.0581 3.7514 17.0329C3.9254 17.0078 4.10295 17.0335 4.26265 17.107C4.42235 17.1806 4.55737 17.2987 4.65143 17.4472L7.20131 29.5331C7.11024 29.6572 7.02759 29.7873 6.95393 29.9224C6.64034 30.5012 6.49703 31.1569 6.54058 31.8138C6.58413 32.4706 6.81276 33.1017 7.20002 33.634C7.25488 33.709 7.3206 33.7754 7.39502 33.8311L12.3731 37.5554C12.5722 37.7044 12.8224 37.7681 13.0684 37.7326C13.3145 37.6972 13.5365 37.5654 13.6854 37.3663C13.8343 37.1672 13.8981 36.9171 13.8626 36.671C13.8271 36.4249 13.6954 36.203 13.4963 36.054L8.64424 32.4238C8.5017 32.1933 8.42018 31.9303 8.40733 31.6596C8.39449 31.3889 8.45075 31.1194 8.57082 30.8765C8.69088 30.6335 8.87081 30.4251 9.09365 30.2709C9.31649 30.1167 9.57492 30.0217 9.84459 29.995L19.5076 37.2243C19.7462 37.3948 19.9451 37.6147 20.091 37.8691C20.2369 38.1234 20.3262 38.4062 20.3529 38.6982ZM22.3602 48.6929C22.2361 48.4775 22.2025 48.2216 22.2671 47.9815C22.3316 47.7414 22.4889 47.5367 22.7043 47.4125L22.7711 47.3741C22.8778 47.312 22.9957 47.2716 23.118 47.2551C23.2404 47.2387 23.3648 47.2466 23.4841 47.2784C23.6034 47.3102 23.7152 47.3652 23.8132 47.4403C23.9112 47.5154 23.9934 47.6092 24.055 47.7161C24.1167 47.8231 24.1566 47.9412 24.1725 48.0636C24.1884 48.186 24.1799 48.3104 24.1476 48.4296C24.1153 48.5487 24.0598 48.6603 23.9843 48.758C23.9087 48.8556 23.8146 48.9374 23.7074 48.9986L23.6406 49.037C23.534 49.0986 23.4162 49.1385 23.2941 49.1545C23.1721 49.1706 23.048 49.1624 22.9291 49.1304C22.8102 49.0985 22.6987 49.0434 22.6011 48.9683C22.5035 48.8932 22.4216 48.7997 22.3602 48.6929ZM49.3276 44.7361L55.6909 41.3377C56.3065 41.018 56.8267 40.5413 57.1988 39.9558C57.5709 39.3704 57.7816 38.697 57.8097 38.0039L58.8738 17.6549C58.8776 17.5828 58.873 17.5104 58.8601 17.4394C58.7559 16.8622 58.4722 16.3326 58.0494 15.9261C57.6267 15.5195 57.0864 15.2568 56.5055 15.1753C55.9247 15.0938 55.333 15.1976 54.8146 15.4721C54.2963 15.7465 53.8777 16.1776 53.6187 16.7038C53.5842 16.7738 53.5586 16.8479 53.5425 16.9243L51.1406 28.3078C50.7085 28.1557 50.2504 28.0912 49.793 28.1179C49.6097 28.1287 49.4335 28.1931 49.2865 28.3031L39.3688 35.7229C38.926 36.0472 38.5562 36.4609 38.2832 36.937C38.0101 37.4132 37.8399 37.9413 37.7836 38.4873L37.2272 43.4016L37.1803 43.3745C36.8058 43.1589 36.3611 43.1007 35.9437 43.2126C35.5263 43.3245 35.1703 43.5973 34.9538 43.9713L30.9707 50.8711C30.7551 51.2456 30.6969 51.6904 30.8087 52.1078C30.9206 52.5252 31.1935 52.8812 31.5675 53.0977L43.1456 59.7825C43.392 59.9256 43.6718 60.001 43.9567 60.0011C44.1005 60.001 44.2436 59.982 44.3824 59.9446C44.5894 59.8899 44.7835 59.7946 44.9534 59.6644C45.1234 59.5342 45.2658 59.3715 45.3724 59.1859L49.3556 52.2868C49.5713 51.9123 49.6295 51.4676 49.5177 51.0502C49.4058 50.6328 49.133 50.2768 48.759 50.0603L47.8976 49.5628L49.1384 44.9741C49.1495 44.9225 49.1723 44.8742 49.2052 44.8329C49.238 44.7917 49.2799 44.7585 49.3276 44.7361ZM43.8714 58.0358L32.7171 51.5958L36.4554 45.1208L47.6098 51.5607L43.8714 58.0358ZM47.3284 44.484L46.2175 48.592L38.9987 44.4241L39.647 38.6982C39.6737 38.4062 39.7631 38.1234 39.9089 37.8691C40.0548 37.6147 40.2538 37.3948 40.4923 37.2243L50.1553 29.995C50.425 30.0217 50.6834 30.1167 50.9063 30.2709C51.1291 30.4251 51.309 30.6335 51.4291 30.8765C51.5492 31.1194 51.6054 31.3889 51.5926 31.6596C51.5797 31.9303 51.4982 32.1933 51.3557 32.4238L46.5033 36.054C46.3042 36.203 46.1724 36.4249 46.137 36.671C46.1015 36.9171 46.1652 37.1672 46.3142 37.3663C46.4631 37.5654 46.685 37.6972 46.9311 37.7326C47.1772 37.7681 47.4273 37.7044 47.6264 37.5554L52.6045 33.8311C52.679 33.7754 52.7447 33.709 52.7995 33.634C53.2353 33.0391 53.4701 32.3208 53.47 31.5834C53.4698 30.846 53.2346 30.1278 52.7986 29.5331L55.3485 17.4472C55.4426 17.2987 55.5776 17.1806 55.7373 17.107C55.897 17.0335 56.0745 17.0078 56.2485 17.0329C56.4225 17.0581 56.5855 17.133 56.7179 17.2487C56.8503 17.3644 56.9463 17.5159 56.9945 17.685L55.9371 37.9063C55.9249 38.2765 55.8136 38.6367 55.6149 38.9493C55.4162 39.2619 55.1373 39.5156 54.8073 39.6838L48.444 43.0822C48.1704 43.2249 47.9298 43.4235 47.7377 43.665C47.5455 43.9065 47.4063 44.1857 47.3288 44.4844L47.3284 44.484ZM37.2287 47.3741L37.2954 47.4125C37.4026 47.4737 37.4967 47.5555 37.5723 47.6531C37.6478 47.7508 37.7033 47.8624 37.7356 47.9815C37.7679 48.1007 37.7764 48.2251 37.7605 48.3475C37.7446 48.4699 37.7047 48.588 37.643 48.695C37.5814 48.8019 37.4992 48.8957 37.4012 48.9708C37.3032 49.0459 37.1914 49.1009 37.0721 49.1327C36.9528 49.1645 36.8284 49.1724 36.706 49.156C36.5837 49.1395 36.4658 49.0991 36.3591 49.037L36.2923 48.9986C36.1856 48.9371 36.0921 48.8552 36.0171 48.7575C35.9421 48.6599 35.887 48.5485 35.8551 48.4296C35.8231 48.3107 35.8149 48.1866 35.8309 48.0646C35.8469 47.9425 35.8868 47.8248 35.9483 47.7181C36.0098 47.6114 36.0917 47.5179 36.1893 47.4429C36.2869 47.3679 36.3984 47.3129 36.5173 47.2809C36.6362 47.249 36.7602 47.2408 36.8823 47.2567C37.0043 47.2727 37.1221 47.3126 37.2287 47.3741Z" fill="#1D1729"/>
</g>
<defs>
<clipPath id="clip0_24_850">
<rect width="60" height="60" fill="white"/>
</clipPath>
</defs>
</svg>
