<svg width="54" height="46" viewBox="0 0 54 46" fill="none" xmlns="http://www.w3.org/2000/svg">
<path d="M51.6094 0.148438H30.5156C29.2233 0.148438 28.1719 1.19984 28.1719 2.49219V23.5859C28.1719 24.8783 29.2233 25.9297 30.5156 25.9297H42.8272L34.673 43.2583C34.6362 43.3364 34.6172 43.4216 34.6172 43.5078C34.6172 44.8002 35.6686 45.8516 36.9609 45.8516H42.2344C43.5102 45.8516 44.3569 44.1249 44.5233 43.7553C44.6299 43.5349 46.9337 38.7697 49.2084 34.0012C53.9531 24.0553 53.9531 23.8059 53.9531 23.5859V2.49219C53.9531 1.19984 52.9018 0.148438 51.6094 0.148438ZM52.7812 23.5168C52.4208 24.6093 47.0422 35.8559 43.4647 43.2527C43.4624 43.2574 43.4599 43.2629 43.4577 43.2677C43.1565 43.9354 42.58 44.6797 42.2344 44.6797H36.9609C36.3547 44.6797 35.8546 44.217 35.795 43.6262L44.2807 25.5932C44.3661 25.4117 44.3527 25.1993 44.2452 25.0298C44.1377 24.8604 43.9512 24.7578 43.7505 24.7578H30.5156C29.8695 24.7578 29.3438 24.2321 29.3438 23.5859V2.49219C29.3438 1.84602 29.8695 1.32031 30.5156 1.32031H51.6094C52.2555 1.32031 52.7812 1.84602 52.7812 2.49219V23.5168ZM23.4844 0.148438H2.39062C1.09828 0.148438 0.046875 1.19984 0.046875 2.49219V23.5859C0.046875 24.8783 1.09828 25.9297 2.39062 25.9297H14.7027L6.54797 43.2583C6.51129 43.3364 6.49219 43.4216 6.49219 43.5078C6.49219 44.8002 7.54359 45.8516 8.83594 45.8516H14.1094C15.3852 45.8516 16.2319 44.1249 16.3983 43.7553C16.5047 43.5355 18.8086 38.7699 21.0834 34.0012C25.8281 24.0553 25.8281 23.8059 25.8281 23.5859V2.49219C25.8281 1.19984 24.7767 0.148438 23.4844 0.148438ZM24.6562 23.5168C24.2957 24.6093 18.9172 35.8559 15.3397 43.2527C15.3374 43.2574 15.3348 43.2629 15.3327 43.2677C15.0315 43.9354 14.455 44.6797 14.1094 44.6797H8.83594C8.22973 44.6797 7.72957 44.217 7.67004 43.6262L16.1562 25.5932C16.2416 25.4117 16.2282 25.1993 16.1208 25.0298C16.0133 24.8604 15.8266 24.7578 15.626 24.7578H2.39062C1.74445 24.7578 1.21875 24.2321 1.21875 23.5859V2.49219C1.21875 1.84602 1.74445 1.32031 2.39062 1.32031H23.4844C24.1305 1.32031 24.6562 1.84602 24.6562 2.49219V23.5168Z" fill="#1D1729"/>
</svg>
