<svg width="48" height="48" viewBox="0 0 48 48" fill="none" xmlns="http://www.w3.org/2000/svg">
<circle cx="24" cy="24" r="24" fill="#1D1729"/>
<g clip-path="url(#clip0_24_749)">
<path d="M32.9529 21.9038C32.8344 21.5394 32.5111 21.2813 32.1302 21.2468L26.9341 20.7751L24.8806 15.9674C24.729 15.6142 24.384 15.3862 24 15.3862C23.616 15.3862 23.2709 15.6142 23.1203 15.9674L21.0667 20.7751L15.8699 21.2468C15.4889 21.282 15.1663 21.5401 15.0471 21.9038C14.9286 22.2683 15.038 22.6681 15.3262 22.9208L19.254 26.3649L18.0959 31.4657C18.0111 31.8407 18.1567 32.2286 18.4679 32.4535C18.6352 32.575 18.8317 32.6357 19.0289 32.6357C19.1984 32.6357 19.368 32.5907 19.5194 32.5001L24 29.821L28.4798 32.5001C28.8084 32.6964 29.2216 32.6785 29.5321 32.4535C29.8433 32.2286 29.9889 31.8407 29.9042 31.4657L28.746 26.3649L32.6739 22.9208C32.9618 22.6681 33.0714 22.2691 32.9529 21.9038Z" fill="white"/>
</g>
<defs>
<clipPath id="clip0_24_749">
<rect width="18" height="18" fill="white" transform="translate(15 15)"/>
</clipPath>
</defs>
</svg>
