<svg width="167" height="37" viewBox="0 0 167 37" fill="none" xmlns="http://www.w3.org/2000/svg">
<g clip-path="url(#clip0_24_691)">
<path d="M135.2 2.88818V33.9258H139.687V2.88818H135.2Z" fill="white"/>
<path fill-rule="evenodd" clip-rule="evenodd" d="M94.6293 34.4258C92.8585 34.4258 91.3795 34.0083 90.1918 33.1731C90.0617 33.082 89.9356 32.9869 89.8125 32.8882V33.9248H85.8534V3.38818H90.3733V16.47C91.4822 15.7482 92.8236 15.3874 94.3982 15.3874C96.1027 15.3874 97.5872 15.7993 98.852 16.6232C100.117 17.447 101.095 18.5771 101.788 20.0134C102.492 21.4385 102.844 23.0695 102.844 24.9064C102.844 26.7102 102.497 28.33 101.805 29.7666C101.123 31.2026 100.166 32.3383 98.9346 33.1731C97.7028 34.0083 96.2678 34.4258 94.6293 34.4258ZM90.2083 22.0342C89.9441 22.8579 89.8125 23.8153 89.8125 24.9064C89.8125 25.9975 89.9441 26.9552 90.2083 27.7789C90.4721 28.603 90.9013 29.2428 91.4948 29.6997C92.0996 30.1561 92.9026 30.3841 93.9033 30.3841C94.8709 30.3841 95.663 30.1394 96.2789 29.6496C96.8947 29.1598 97.351 28.5027 97.6478 27.6787C97.9448 26.8439 98.0931 25.9199 98.0931 24.9064C98.0931 23.9044 97.9393 22.9916 97.6313 22.1679C97.3234 21.3327 96.8452 20.6702 96.1963 20.1804C95.5584 19.6794 94.7389 19.4289 93.7382 19.4289C92.8035 19.4289 92.0446 19.6571 91.4621 20.1135C90.8903 20.5701 90.4721 21.2102 90.2083 22.0342Z" fill="white"/>
<path d="M78.7595 23.2701V33.9252H83.2461V22.068C83.2461 20.0973 82.7238 18.5052 81.6791 17.2916C80.6454 16.0669 79.1114 15.4546 77.077 15.4546C75.8892 15.4546 74.8061 15.7218 73.8273 16.2561C72.9312 16.7407 72.2001 17.4066 71.6342 18.2539C71.212 17.485 70.6288 16.8525 69.8848 16.3564C68.9941 15.7552 67.8505 15.4546 66.4539 15.4546C65.2331 15.4546 64.128 15.7273 63.1382 16.2729C62.3903 16.6897 61.7579 17.2204 61.2411 17.8648V15.8887H57.2823V33.9252H61.8019V23.0031C61.8019 21.9678 62.0826 21.1271 62.6434 20.4813C63.2153 19.8245 63.9683 19.4961 64.903 19.4961C65.882 19.4961 66.6461 19.8301 67.196 20.4981C67.7569 21.155 68.0375 22.0792 68.0375 23.2701V33.9252H72.5241V23.0031C72.5241 22.3128 72.6506 21.706 72.9037 21.1828C73.1675 20.6484 73.5302 20.2364 73.9925 19.947C74.4542 19.6464 74.9986 19.4961 75.6255 19.4961C76.6042 19.4961 77.3682 19.8301 77.918 20.4981C78.479 21.155 78.7595 22.0792 78.7595 23.2701Z" fill="white"/>
<path d="M41.2071 33.7417C42.0867 34.2204 43.2249 34.4599 44.6218 34.4599C46.3701 34.4599 47.8164 34.076 48.9601 33.3076C49.5029 32.9467 49.9813 32.5324 50.3951 32.0656V33.9255H54.3542V15.8892H49.8343V25.0409C49.8343 26.1541 49.7078 27.0559 49.455 27.7463C49.2129 28.4255 48.8997 28.9432 48.5144 29.2994C48.1296 29.6448 47.7173 29.8783 47.2776 30.0009C46.8378 30.1234 46.4251 30.1848 46.0403 30.1848C45.0836 30.1848 44.3412 29.9675 43.8133 29.5334C43.2965 29.0991 42.9227 28.5593 42.6916 27.9134C42.4609 27.2675 42.3234 26.6273 42.2793 25.9927C42.2353 25.3472 42.2132 24.8184 42.2132 24.4061V15.8892H37.6606V26.0093C37.6606 26.3102 37.6823 26.7889 37.7263 27.4459C37.7704 28.1028 37.8969 28.8318 38.106 29.6336C38.3147 30.4239 38.6614 31.1866 39.1452 31.9216C39.6401 32.6562 40.3274 33.263 41.2071 33.7417Z" fill="white"/>
<path d="M104.824 15.8891V33.9256H109.343V24.7071C109.343 24.0167 109.437 23.3987 109.624 22.8532C109.811 22.2964 110.086 21.8178 110.449 21.4171C110.812 21.0051 111.257 20.6766 111.785 20.4317C112.313 20.1757 112.901 20.0254 113.55 19.9808C114.209 19.9251 114.787 19.9752 115.282 20.1311V15.8891C114.743 15.8224 114.204 15.8113 113.665 15.8558C113.126 15.8891 112.604 15.9839 112.098 16.1397C111.592 16.2845 111.125 16.4904 110.696 16.7576C110.135 17.0916 109.662 17.5147 109.278 18.0268C109.095 18.2692 108.93 18.5242 108.782 18.7915V15.8891H104.824Z" fill="white"/>
<path fill-rule="evenodd" clip-rule="evenodd" d="M124.729 34.4266C122.904 34.4266 121.293 34.0315 119.896 33.2408C118.51 32.4394 117.422 31.3428 116.63 29.9508C115.849 28.5482 115.459 26.945 115.459 25.1412C115.459 23.1707 115.843 21.4561 116.613 19.9975C117.383 18.539 118.444 17.4089 119.797 16.6073C121.149 15.7945 122.706 15.3882 124.465 15.3882C126.335 15.3882 127.924 15.8336 129.233 16.7242C130.541 17.6149 131.509 18.8674 132.135 20.4818C132.763 22.0964 132.983 23.9944 132.796 26.1766H120.286C120.426 27.2594 120.758 28.1388 121.282 28.8152C122.007 29.7285 123.069 30.1849 124.465 30.1849C125.345 30.1849 126.098 29.9899 126.725 29.6003C127.352 29.2107 127.83 28.6485 128.16 27.9135L132.647 29.2163C131.977 30.864 130.915 32.1442 129.463 33.057C128.023 33.9702 126.445 34.4266 124.729 34.4266ZM127.484 20.5486C127.867 21.076 128.125 21.8277 128.256 22.803H120.404C120.579 21.9702 120.872 21.2854 121.282 20.7491C122.007 19.8026 123.135 19.3294 124.663 19.3294C125.972 19.3294 126.912 19.7359 127.484 20.5486Z" fill="white"/>
<path d="M143.312 33.9258V2.88818H147.8V33.9258H143.312Z" fill="white"/>
<path fill-rule="evenodd" clip-rule="evenodd" d="M152.794 33.6917C153.686 34.1815 154.769 34.4266 156.044 34.4266C157.583 34.4266 158.853 34.1593 159.855 33.6248C160.652 33.1947 161.405 32.5572 162.115 31.7117V33.9256H166.041V22.9033C166.041 22.0796 166.007 21.3335 165.941 20.6656C165.875 19.9975 165.667 19.3294 165.315 18.6614C164.687 17.4591 163.764 16.6128 162.544 16.123C161.322 15.6331 159.926 15.3882 158.353 15.3882C156.209 15.3882 154.515 15.8558 153.272 16.791C152.03 17.7262 151.184 18.9397 150.733 20.4317L154.791 21.7342C155.076 20.9105 155.577 20.3371 156.291 20.0142C157.006 19.6914 157.693 19.5299 158.353 19.5299C159.541 19.5299 160.387 19.7805 160.893 20.2814C161.291 20.6749 161.532 21.2432 161.618 21.9869C160.857 22.1034 160.138 22.2142 159.459 22.3187C158.304 22.4859 157.27 22.6641 156.358 22.8532C155.445 23.0426 154.659 23.2598 153.998 23.5046C153.042 23.8607 152.277 24.3064 151.706 24.8407C151.144 25.364 150.738 25.9704 150.484 26.6608C150.232 27.3512 150.105 28.114 150.105 28.9489C150.105 29.9508 150.331 30.8693 150.782 31.7045C151.244 32.5281 151.915 33.1907 152.794 33.6917ZM159.079 30.4184C158.518 30.7081 157.825 30.8529 157.001 30.8529C156.483 30.8529 156.038 30.7749 155.664 30.619C155.291 30.4629 154.999 30.2405 154.791 29.9508C154.592 29.6504 154.494 29.2938 154.494 28.882C154.494 28.5817 154.554 28.3086 154.675 28.0639C154.806 27.8188 155.004 27.5964 155.268 27.3958C155.543 27.1842 155.901 26.9896 156.341 26.8112C156.725 26.6665 157.171 26.5327 157.677 26.4105C158.182 26.288 158.848 26.1542 159.673 26.0094C160.203 25.9096 160.837 25.7953 161.576 25.6677C161.565 25.9852 161.547 26.3441 161.521 26.7444C161.487 27.3903 161.355 27.9581 161.125 28.4479C161.003 28.7038 160.773 29.0213 160.432 29.3997C160.102 29.7781 159.651 30.1179 159.079 30.4184Z" fill="white"/>
<path fill-rule="evenodd" clip-rule="evenodd" d="M12.8985 16.0194H0.714233V21.3913C0.714233 29.4126 7.13712 35.9153 15.0601 35.9153C22.9832 35.9153 29.4063 29.4126 29.4063 21.3913V16.0194H16.8289V7.46412C16.8289 4.05778 14.1013 1.29639 10.7367 1.29639C7.37215 1.29639 4.64463 4.05778 4.64463 7.46412H8.57501C8.57501 6.2554 9.54288 5.27556 10.7367 5.27556C11.9306 5.27556 12.8985 6.2554 12.8985 7.46412V16.0194ZM12.8985 19.9985V27.5589H16.8289V19.9985H25.4758V21.3913C25.4758 27.2152 20.8125 31.9362 15.0601 31.9362C9.30783 31.9362 4.64463 27.2152 4.64463 21.3913V19.9985H12.8985Z" fill="white"/>
</g>
<defs>
<clipPath id="clip0_24_691">
<rect width="166.457" height="36.6897" fill="white" transform="translate(0.542969)"/>
</clipPath>
</defs>
</svg>
