<svg width="183" height="36" viewBox="0 0 183 36" fill="none" xmlns="http://www.w3.org/2000/svg">
<g clip-path="url(#clip0_24_701)">
<path d="M59.0763 31.4189C56.4657 31.4189 54.1579 30.8997 52.153 29.8615C50.1479 28.7994 48.5978 27.3007 47.5023 25.3655C46.4066 23.4301 45.8588 21.1526 45.8588 18.5329C45.8588 15.9132 46.4066 13.6357 47.5023 11.7004C48.5978 9.74151 50.1479 8.24288 52.153 7.20443C54.1579 6.14237 56.4657 5.61133 59.0763 5.61133C60.8482 5.61133 62.41 5.80016 63.7621 6.17778C65.1378 6.53181 66.3963 7.0982 67.5383 7.87706V13.0103C66.513 12.1606 65.3358 11.547 64.007 11.1694C62.7015 10.7682 61.2098 10.5676 59.5312 10.5676C57.9694 10.5676 56.5586 10.898 55.2999 11.5588C54.0645 12.196 53.0855 13.1164 52.3628 14.3202C51.6401 15.5237 51.2785 16.928 51.2785 18.5329C51.2785 20.1614 51.6051 21.5893 52.2576 22.8165C52.9339 24.0201 53.8778 24.9524 55.09 25.6133C56.3022 26.2741 57.7011 26.6044 59.2863 26.6044C60.7315 26.6044 61.9902 26.3448 63.0626 25.8257V21.0464H59.1114V17.0815H68.2028V29.0119C65.8949 30.6167 62.8532 31.4189 59.0763 31.4189Z" fill="white"/>
<path d="M69.4307 13.8952H74.5358V16.3379C75.212 15.5119 76.1559 14.8865 77.3681 14.4617C78.5803 14.0133 79.956 13.7891 81.4942 13.7891V17.8602C79.8858 17.8602 78.4638 18.108 77.2283 18.6037C76.0162 19.0992 75.1769 19.8545 74.7106 20.8694V30.8881H69.4307V13.8952Z" fill="white"/>
<path d="M91.6414 31.4188C88.4243 31.4188 85.8947 30.6402 84.0531 29.0824C82.2117 27.5013 81.291 25.2946 81.291 22.4625C81.291 19.6539 82.107 17.4354 83.7385 15.807C85.3938 14.1785 87.748 13.3643 90.8022 13.3643C92.8067 13.3643 94.5084 13.7418 95.9073 14.4971C97.3057 15.2523 98.3668 16.3025 99.0895 17.6479C99.8121 18.9695 100.173 20.4681 100.173 22.1438V24.3034H86.3264C86.6994 26.4746 88.7038 27.5602 92.3404 27.5602C93.4128 27.5602 94.5202 27.4659 95.6622 27.2771C96.8049 27.0882 97.7957 26.8287 98.635 26.4982V30.2506C97.819 30.6047 96.7698 30.8882 95.4875 31.1002C94.2056 31.3128 92.9233 31.4188 91.6414 31.4188ZM95.1727 20.834C95.1032 19.7012 94.6832 18.8279 93.9142 18.2143C93.145 17.577 92.0841 17.2584 90.732 17.2584C89.4033 17.2584 88.3541 17.577 87.585 18.2143C86.816 18.8515 86.3961 19.7248 86.3264 20.834H95.1727Z" fill="white"/>
<path d="M110.996 31.4188C107.779 31.4188 105.249 30.6402 103.408 29.0824C101.566 27.5013 100.645 25.2946 100.645 22.4625C100.645 19.6539 101.461 17.4354 103.093 15.807C104.748 14.1785 107.103 13.3643 110.156 13.3643C112.161 13.3643 113.863 13.7418 115.262 14.4971C116.66 15.2523 117.721 16.3025 118.444 17.6479C119.166 18.9695 119.528 20.4681 119.528 22.1438V24.3034H105.681C106.054 26.4746 108.059 27.5602 111.695 27.5602C112.768 27.5602 113.875 27.4659 115.017 27.2771C116.159 27.0882 117.15 26.8287 117.989 26.4982V30.2506C117.173 30.6047 116.124 30.8882 114.842 31.1002C113.56 31.3128 112.278 31.4188 110.996 31.4188ZM114.527 20.834C114.457 19.7012 114.038 18.8279 113.269 18.2143C112.499 17.577 111.439 17.2584 110.087 17.2584C108.758 17.2584 107.709 17.577 106.94 18.2143C106.17 18.8515 105.751 19.7248 105.681 20.834H114.527Z" fill="white"/>
<path d="M120.701 13.8953H125.806V15.984C126.575 15.1108 127.484 14.4618 128.533 14.0369C129.606 13.5884 130.725 13.3643 131.89 13.3643C134.175 13.3643 135.877 13.9896 136.995 15.2405C138.137 16.4678 138.709 18.1316 138.709 20.2321V30.8882H133.429V20.834C133.429 18.639 132.426 17.5417 130.421 17.5417C129.535 17.5417 128.708 17.7658 127.939 18.2143C127.17 18.639 126.517 19.2764 125.981 20.126V30.8882H120.701V13.8953Z" fill="white"/>
<path d="M143.368 11.2756C142.552 11.2756 141.865 11.0042 141.305 10.4613C140.745 9.91851 140.465 9.23407 140.465 8.40802C140.465 7.60562 140.745 6.93299 141.305 6.39014C141.865 5.82373 142.552 5.54053 143.368 5.54053C144.183 5.54053 144.871 5.82373 145.431 6.39014C145.99 6.93299 146.271 7.60562 146.271 8.40802C146.271 9.23407 145.99 9.91851 145.431 10.4613C144.871 11.0042 144.183 11.2756 143.368 11.2756ZM140.71 13.8953H146.026V30.8882H140.71V13.8953Z" fill="white"/>
<path d="M155.028 31.4188C153.769 31.4188 152.418 31.2773 150.973 30.9942C149.55 30.7347 148.431 30.3571 147.615 29.8616V25.6839C148.548 26.2504 149.667 26.7106 150.973 27.0646C152.277 27.4187 153.49 27.5956 154.609 27.5956C155.564 27.5956 156.265 27.513 156.706 27.3478C157.15 27.1826 157.371 26.8758 157.371 26.4274C157.371 26.0734 157.243 25.7902 156.987 25.5778C156.731 25.3418 156.334 25.1412 155.797 24.976C155.285 24.7871 154.422 24.5158 153.21 24.1617C151.788 23.7369 150.669 23.3121 149.854 22.8873C149.061 22.4389 148.454 21.8842 148.035 21.2234C147.638 20.5626 147.44 19.713 147.44 18.6745C147.44 16.9044 148.128 15.5828 149.504 14.7095C150.902 13.8126 152.791 13.3643 155.169 13.3643C156.334 13.3643 157.535 13.4941 158.771 13.7536C160.029 13.9896 160.996 14.3083 161.672 14.7095V18.7806C160.996 18.3322 160.111 17.9664 159.015 17.6832C157.942 17.4001 156.893 17.2584 155.868 17.2584C154.911 17.2584 154.166 17.3528 153.63 17.5417C153.117 17.7304 152.86 18.0845 152.86 18.6037C152.86 19.0521 153.106 19.3943 153.595 19.6304C154.107 19.8664 155.052 20.1614 156.427 20.5154L157.126 20.6923C158.595 21.0935 159.737 21.5421 160.553 22.0376C161.37 22.5096 161.941 23.0879 162.267 23.7723C162.617 24.4331 162.791 25.2709 162.791 26.2858C162.791 27.8436 162.127 29.0944 160.799 30.0386C159.47 30.9587 157.546 31.4188 155.028 31.4188Z" fill="white"/>
<path d="M164.013 4.72607H169.292V15.8422C170.086 15.0162 170.984 14.4025 171.985 14.0013C172.988 13.5765 174.061 13.3641 175.203 13.3641C177.487 13.3641 179.189 13.9895 180.308 15.2404C181.45 16.4676 182.021 18.1315 182.021 20.232V30.888H176.742V20.8338C176.742 18.6389 175.738 17.5415 173.734 17.5415C172.848 17.5415 172.021 17.7657 171.251 18.2141C170.482 18.6389 169.829 19.2761 169.292 20.1257V30.888H164.013V4.72607Z" fill="white"/>
<path fill-rule="evenodd" clip-rule="evenodd" d="M27.8267 9.73512C27.8267 14.232 24.2262 17.8775 19.7845 17.8775C15.3426 17.8775 11.7419 14.232 11.7419 9.73512C11.7419 5.23822 15.3426 1.59277 19.7845 1.59277C24.2262 1.59277 27.8267 5.23822 27.8267 9.73512ZM1.0769 17.2857C9.83903 16.6878 17.4755 23.3294 18.1867 32.2193C18.2605 33.1405 18.2569 34.0496 18.1817 34.941C9.41956 35.5391 1.78311 28.8973 1.07179 20.0076C0.998134 19.0865 1.00164 18.177 1.0769 17.2857ZM23.8509 34.6298C32.6316 33.9097 39.1918 26.1784 38.6012 17.3075C37.7207 17.2313 36.8226 17.2278 35.9128 17.3024C27.1319 18.0225 20.5718 25.7537 21.1625 34.6246C22.0428 34.7009 22.941 34.7045 23.8509 34.6298Z" fill="white"/>
</g>
<defs>
<clipPath id="clip0_24_701">
<rect width="181.822" height="35.3793" fill="white" transform="translate(0.696777 0.310547)"/>
</clipPath>
</defs>
</svg>
