<svg width="180" height="38" viewBox="0 0 180 38" fill="none" xmlns="http://www.w3.org/2000/svg">
<g clip-path="url(#clip0_24_678)">
<path d="M0 25.3584L12.6915 19.6396L19.9965 23.9287L21.4723 37.9999L12.4702 37.9245L13.7983 28.1423L12.2488 27.2395L4.64861 33.2595L0 25.3584Z" fill="white" fill-opacity="0.2"/>
<path d="M20.8084 23.3262L32.0243 31.6785L36.4515 23.6272L27.4491 19.94V18.1341L36.4515 14.3717L32.0243 6.39551L20.8084 14.748V23.3262Z" fill="white" fill-opacity="0.6"/>
<path d="M19.9965 14.0713L21.4723 0L12.4702 0.150451L13.7983 9.93265L12.2488 10.8356L4.57483 4.81579L0 12.6415L12.6915 18.3603L19.9965 14.0713Z" fill="white"/>
<path d="M66.4842 17.3133V30.4959H71.329V13.6958H64.2733V17.3133H66.4842Z" fill="white"/>
<path d="M66.3345 11.3356C66.7787 11.8056 67.4549 12.0406 68.3633 12.0406C69.2721 12.0406 69.9378 11.8056 70.3615 11.3356C70.8062 10.8449 71.0277 10.2317 71.0277 9.49618C71.0277 8.73983 70.8062 8.12668 70.3615 7.6567C69.9378 7.16625 69.2721 6.9209 68.3633 6.9209C67.4549 6.9209 66.7787 7.16625 66.3345 7.6567C65.9108 8.12668 65.6988 8.73983 65.6988 9.49618C65.6988 10.2317 65.9108 10.8449 66.3345 11.3356Z" fill="white"/>
<path d="M49.6184 30.128C50.9909 30.7616 52.6766 31.0786 54.6749 31.0786C56.5525 31.0786 58.1672 30.7818 59.5202 30.1894C60.8727 29.5968 61.9121 28.7688 62.6388 27.706C63.3861 26.6227 63.7592 25.3659 63.7592 23.9351C63.7592 22.5453 63.4066 21.3701 62.6999 20.4095C62.0131 19.4286 61.0548 18.6621 59.8228 18.1104C58.5914 17.538 57.1683 17.1803 55.5531 17.0373L53.8576 16.884C52.8481 16.8021 52.1213 16.5264 51.6772 16.0563C51.2331 15.5862 51.0109 15.0342 51.0109 14.4009C51.0109 13.9102 51.1325 13.4606 51.374 13.0519C51.6167 12.6226 51.9798 12.2855 52.4645 12.0401C52.9692 11.795 53.585 11.6723 54.3117 11.6723C55.0785 11.6723 55.7147 11.8152 56.2193 12.1015C56.3305 12.162 56.436 12.2267 56.535 12.2953L56.559 12.3124C56.5961 12.3383 56.6325 12.3652 56.6681 12.3923C56.9747 12.6296 57.2187 12.9107 57.4003 13.2357C57.6624 13.6854 57.7945 14.1861 57.7945 14.738H62.6388C62.6388 13.2664 62.3057 11.989 61.64 10.9058C60.9737 9.80223 60.0148 8.95407 58.7633 8.36118C57.5314 7.74803 56.0479 7.44141 54.3117 7.44141C52.656 7.44141 51.2231 7.72777 50.0115 8.29994C48.8006 8.85187 47.8518 9.64894 47.1655 10.6911C46.4988 11.7335 46.1656 12.9702 46.1656 14.4009C46.1656 16.3832 46.8223 17.9774 48.1344 19.1834C49.4463 20.3892 51.203 21.084 53.4034 21.2679L55.069 21.4212C56.421 21.544 57.4003 21.8199 58.0061 22.2489C58.6113 22.6578 58.9144 23.2198 58.9144 23.9351C58.9144 24.2639 58.8614 24.5722 58.7549 24.8602C58.6759 25.074 58.5678 25.2766 58.4303 25.4682C58.1066 25.8971 57.6324 26.2344 57.0067 26.4799C56.3809 26.7251 55.6037 26.8476 54.6749 26.8476C53.6454 26.8476 52.8076 26.7048 52.1619 26.4182C51.5157 26.1118 51.0314 25.7132 50.7078 25.2229C50.4053 24.7322 50.2542 24.201 50.2542 23.6285H45.4393C45.4393 25.0797 45.7925 26.367 46.4988 27.4912C47.2056 28.5952 48.2454 29.4738 49.6184 30.128Z" fill="white"/>
<path d="M82.1384 30.7107C80.4628 30.7107 79.1103 30.5061 78.0809 30.0974C77.0511 29.668 76.2942 28.963 75.8096 27.9821C75.3454 26.9805 75.1133 25.632 75.1133 23.9354V17.2828H72.5999V13.6958H75.1133V9.15869H79.625V13.6958H84.4703V17.2828H79.625V24.1195C79.625 24.9166 79.8271 25.5297 80.2307 25.9586C80.6544 26.3673 81.2502 26.5719 82.0174 26.5719H84.4703V30.7107H82.1384Z" fill="white"/>
<path fill-rule="evenodd" clip-rule="evenodd" d="M90.3033 30.3424C91.3932 30.8326 92.6452 31.0783 94.0583 31.0783C95.4508 31.0783 96.6827 30.8326 97.7527 30.3424C98.8226 29.8517 99.711 29.167 100.417 28.2884C101.124 27.4093 101.599 26.4077 101.84 25.2838H97.389C97.1875 25.7944 96.8039 26.2238 96.2385 26.5712C95.6734 26.9187 94.9461 27.0923 94.0583 27.0923C93.5081 27.0923 93.0164 27.0266 92.5833 26.8949C92.2536 26.7946 91.958 26.6564 91.6964 26.4796C91.0907 26.0704 90.6465 25.4982 90.3639 24.7627C90.2854 24.553 90.2183 24.3339 90.1618 24.1055C90.1043 23.8743 90.0577 23.6336 90.0228 23.383H102.143V21.7275C102.143 20.1945 101.82 18.7845 101.175 17.4969C100.528 16.1886 99.5893 15.1361 98.3584 14.339C97.147 13.5215 95.6529 13.1128 93.8763 13.1128C92.5237 13.1128 91.3122 13.3581 90.2424 13.8486C89.1934 14.3186 88.3151 14.9623 87.6084 15.7799C86.9021 16.5974 86.3569 17.5275 85.9728 18.57C85.6096 19.5915 85.428 20.6646 85.428 21.7887V22.4018C85.428 23.4852 85.6096 24.5479 85.9728 25.5904C86.3569 26.6122 86.9021 27.542 87.6084 28.3801C88.3352 29.1974 89.233 29.8517 90.3033 30.3424ZM90.1063 20.3515C90.1198 20.2867 90.1338 20.2227 90.1493 20.1598C90.1913 19.9865 90.2398 19.8204 90.2949 19.6616C90.3259 19.5714 90.3589 19.4832 90.3944 19.3976C90.6971 18.6413 91.1412 18.069 91.7264 17.6808C91.9455 17.5356 92.1826 17.4177 92.4372 17.3269C92.8654 17.1745 93.3455 17.0982 93.8763 17.0982C94.7046 17.0982 95.3902 17.2925 95.9355 17.6808C96.5006 18.0486 96.9249 18.5902 97.2074 19.3055C97.2305 19.3633 97.252 19.422 97.273 19.4815C97.3066 19.5763 97.3375 19.6736 97.3665 19.7733C97.409 19.9216 97.4465 20.0752 97.4795 20.2339C97.5036 20.3509 97.5241 20.4706 97.5425 20.5933H90.0598C90.0737 20.5113 90.0892 20.4308 90.1063 20.3515Z" fill="white"/>
<path d="M104.144 30.4955V13.6954H107.99V17.9268C108.042 17.6752 108.102 17.4339 108.168 17.2023C108.225 17.0073 108.286 16.8192 108.354 16.6385C108.778 15.4939 109.413 14.6356 110.261 14.0633C111.109 13.4706 112.148 13.1743 113.38 13.1743H113.592C114.844 13.1743 115.883 13.4706 116.711 14.0633C117.559 14.6356 118.195 15.4939 118.619 16.6385L118.652 16.725L118.681 16.8038C118.7 16.7482 118.72 16.693 118.74 16.6385C119.184 15.4939 119.83 14.6356 120.678 14.0633C121.526 13.4706 122.566 13.1743 123.797 13.1743H124.009C125.26 13.1743 126.31 13.4706 127.158 14.0633C128.026 14.6356 128.683 15.4939 129.126 16.6385C129.57 17.7831 129.793 19.2138 129.793 20.9306V30.4955H124.948V20.6545C124.948 19.7348 124.706 18.989 124.221 18.4167C123.757 17.8444 123.091 17.5582 122.223 17.5582C121.354 17.5582 120.668 17.8547 120.164 18.4474C119.659 19.0195 119.406 19.7859 119.406 20.7467V30.4955H114.531V20.6545C114.531 19.7348 114.289 18.989 113.804 18.4167C113.34 17.8444 112.684 17.5582 111.836 17.5582C110.947 17.5582 110.251 17.8547 109.747 18.4474C109.242 19.0195 108.989 19.7859 108.989 20.7467V30.4955H104.144Z" fill="white"/>
<path fill-rule="evenodd" clip-rule="evenodd" d="M142.734 27.26V30.4969H146.58V20.1962C146.58 18.6428 146.277 17.3758 145.671 16.3946C145.065 15.3931 144.178 14.6473 143.006 14.1567C141.856 13.6662 140.433 13.4209 138.737 13.4209C138.37 13.4209 137.986 13.4248 137.586 13.433C137.349 13.4379 137.107 13.4441 136.859 13.4514C136.193 13.472 135.546 13.5025 134.922 13.5435L134.444 13.5762C134.198 13.5935 133.968 13.6104 133.75 13.6277C133.587 13.6405 133.432 13.6534 133.287 13.6662V17.8051C133.913 17.764 134.608 17.723 135.376 17.6824C135.59 17.671 135.803 17.6604 136.014 17.6504C136.319 17.6361 136.619 17.6238 136.918 17.613C137.152 17.6043 137.385 17.5967 137.617 17.5903C138.343 17.5697 138.928 17.5596 139.372 17.5596C140.261 17.5596 140.906 17.7741 141.311 18.2034C141.714 18.6327 141.917 19.2764 141.917 20.135V20.1962H138.919C137.445 20.1962 136.143 20.3904 135.013 20.7787C133.882 21.1466 133.004 21.729 132.379 22.5261C131.753 23.3029 131.439 24.3044 131.439 25.5307C131.439 26.6549 131.691 27.6256 132.196 28.443C132.701 29.24 133.397 29.8533 134.285 30.2822C135.194 30.7116 136.244 30.9263 137.435 30.9263C138.585 30.9263 139.554 30.7116 140.342 30.2822C141.15 29.8533 141.776 29.24 142.219 28.443C142.297 28.3088 142.37 28.1695 142.439 28.0247C142.535 27.82 142.62 27.6043 142.695 27.379L142.734 27.26ZM141.917 24.2737V22.9247H138.888C138.041 22.9247 137.385 23.1392 136.92 23.5685C136.476 23.9773 136.253 24.5393 136.253 25.2546C136.253 25.5914 136.31 25.8973 136.42 26.1733C136.531 26.4498 136.698 26.6953 136.92 26.9101C137.385 27.3192 138.041 27.5234 138.888 27.5234C139.05 27.5234 139.206 27.5152 139.356 27.499C139.479 27.4864 139.599 27.4677 139.714 27.4438C139.937 27.3977 140.146 27.3324 140.342 27.2474C140.786 27.0432 141.15 26.706 141.431 26.2355C141.714 25.7657 141.876 25.1115 141.917 24.2737Z" fill="white"/>
<path d="M149.479 30.4955V13.6955H153.325V19.2408C153.51 17.6578 153.974 16.3814 154.718 15.4123C155.727 14.1247 157.181 13.481 159.078 13.481H159.715V17.7115H158.503C157.17 17.7115 156.141 18.0793 155.415 18.8152C154.688 19.5306 154.324 20.5729 154.324 21.9421V30.4955H149.479Z" fill="white"/>
<path d="M165.859 22.6482H167.464L172.702 30.4964H178.153L171.51 20.8579L176.972 13.6963H171.885L165.859 21.6846V8.1167H161.014V30.4964H165.859V22.6482Z" fill="white"/>
</g>
<defs>
<clipPath id="clip0_24_678">
<rect width="179.261" height="38" fill="white"/>
</clipPath>
</defs>
</svg>
