<svg width="176" height="32" viewBox="0 0 176 32" fill="none" xmlns="http://www.w3.org/2000/svg">
<path fill-rule="evenodd" clip-rule="evenodd" d="M19.2104 2.89502C16.4553 2.89502 14.222 5.15616 14.222 7.94539C14.222 10.7346 16.4553 12.9958 19.2104 12.9958C21.9656 12.9958 24.1989 10.7346 24.1989 7.94539C24.1989 5.15616 21.9656 2.89502 19.2104 2.89502ZM9.45688 12.7202C14.6495 12.7202 18.8591 16.982 18.8591 22.2391V30.0409H14.1824V22.2391C14.1824 21.679 14.0874 21.1418 13.9129 20.6424L7.04351 27.5972L3.73659 24.249L10.3612 17.5424C10.0685 17.485 9.76613 17.4549 9.45688 17.4549H1.75085V12.7202H9.45688ZM29.0803 12.7202C23.8877 12.7202 19.678 16.982 19.678 22.2391V30.0409H24.3547V22.2391C24.3547 21.8006 24.4131 21.3757 24.5222 20.9724L31.708 28.2474L35.015 24.8994L27.8292 17.6244C28.2277 17.5139 28.6473 17.4549 29.0803 17.4549H36.7863V12.7202H29.0803Z" fill="white"/>
<path d="M44.2679 30.3147V3.1001H51.8809L60.0432 26.4211H60.6318V3.1001H64.9878V30.3147H57.5319L49.173 6.95385H48.6237V30.3147H44.2679Z" fill="white"/>
<path d="M82.4392 26.7387L83.5379 26.6198L83.6165 29.8377C80.634 30.4469 77.9917 30.7515 75.6896 30.7515C72.7857 30.7515 70.6927 29.9434 69.4109 28.3281C68.1551 26.7121 67.5272 24.1298 67.5272 20.5808C67.5272 13.5354 70.3656 10.0127 76.0427 10.0127C81.5366 10.0127 84.2836 13.0454 84.2836 19.1107L84.009 22.2095H71.8438C71.8699 23.8518 72.2232 25.0569 72.9035 25.8249C73.5835 26.5932 74.8524 26.977 76.71 26.977C78.5672 26.977 80.4771 26.8978 82.4392 26.7387ZM80.0847 18.8725C80.0847 16.9123 79.7707 15.5483 79.1428 14.7803C78.5414 13.9856 77.5078 13.5883 76.0427 13.5883C74.5778 13.5883 73.5051 13.9989 72.8248 14.82C72.1708 15.641 71.8306 16.9919 71.8047 18.8725H80.0847Z" fill="white"/>
<path d="M96.9909 14.1446H91.5753V22.885C91.5753 24.5008 91.6931 25.5734 91.9285 26.1031C92.1639 26.6327 92.7656 26.8978 93.7337 26.8978L96.9516 26.7785L97.1476 30.2348C95.3948 30.5792 94.0607 30.7515 93.1451 30.7515C90.9215 30.7515 89.391 30.2348 88.5538 29.202C87.7425 28.169 87.3373 26.2223 87.3373 23.362V14.1446H84.8256V10.4497H87.3373V4.68896H91.5753V10.4497H96.9909V14.1446Z" fill="white"/>
<path d="M97.006 10.4492H101.205L104.305 26.6193H105.09L108.818 10.8465H113.213L116.941 26.6193H117.726L120.787 10.4492H125.025L120.865 30.3139H114.076L111.015 16.6867L107.955 30.3139H101.166L97.006 10.4492Z" fill="white"/>
<path d="M127.755 12.5951C129.115 10.8735 131.365 10.0127 134.505 10.0127C137.643 10.0127 139.88 10.8735 141.214 12.5951C142.575 14.3167 143.255 16.8991 143.255 20.3424C143.255 23.7855 142.601 26.3811 141.292 28.1291C139.985 29.8775 137.723 30.7515 134.505 30.7515C131.287 30.7515 129.023 29.8775 127.715 28.1291C126.407 26.3811 125.753 23.7855 125.753 20.3424C125.753 16.8991 126.42 14.3167 127.755 12.5951ZM130.972 25.507C131.574 26.5667 132.752 27.0963 134.505 27.0963C136.258 27.0963 137.434 26.5667 138.036 25.507C138.638 24.4477 138.939 22.713 138.939 20.3026C138.939 17.8923 138.611 16.1839 137.958 15.1774C137.329 14.171 136.178 13.6678 134.505 13.6678C132.83 13.6678 131.666 14.171 131.012 15.1774C130.384 16.1839 130.069 17.8923 130.069 20.3026C130.069 22.713 130.37 24.4477 130.972 25.507Z" fill="white"/>
<path d="M145.543 30.3144V10.4497H149.781V12.8335C152.004 11.3767 154.228 10.4365 156.452 10.0127V14.3433C154.202 14.7935 152.279 15.3762 150.684 16.0913L149.819 16.4489V30.3144H145.543Z" fill="white"/>
<path d="M162.037 30.3144H157.761V2.18604H162.037V18.4354L164.471 18.197L169.101 10.4497H173.889L168.238 19.7465L174.203 30.3144H169.375L164.589 21.9314L162.037 22.2095V30.3144Z" fill="white"/>
</svg>
