<svg width="173" height="36" viewBox="0 0 173 36" fill="none" xmlns="http://www.w3.org/2000/svg">
<g clip-path="url(#clip0_24_720)">
<path d="M5.54238 5.32417C7.87101 3.0733 11.033 1.75952 14.2377 1.59611C15.3345 1.59611 16.4345 1.60277 17.5314 1.59277C17.4754 2.78323 17.5314 3.97702 17.4985 5.16741C17.3436 7.8284 16.372 10.4294 14.735 12.5168C12.6073 15.3246 9.35318 17.2086 5.89812 17.6954C4.38961 17.9421 2.85803 17.7854 1.33965 17.8288C1.36597 16.5183 1.28365 15.2046 1.38577 13.8974C1.68222 10.6561 3.19401 7.55165 5.54238 5.32417Z" fill="white" fill-opacity="0.2"/>
<path d="M18.5464 1.59277C19.7222 1.6061 20.898 1.58611 22.0772 1.59944C25.012 1.8095 27.907 2.94992 30.1169 4.92737C32.5544 7.0448 34.2242 10.0726 34.6526 13.3071C34.84 14.8077 34.7218 16.3249 34.7943 17.8321C33.7663 17.8288 32.7422 17.8255 31.7143 17.8321C29.1882 17.7621 26.7048 16.9351 24.5903 15.5413C23.6154 14.8344 22.6141 14.1175 21.883 13.1371C20.2788 11.3231 19.1887 9.04556 18.777 6.64467C18.4674 4.97735 18.5925 3.27676 18.5464 1.59277Z" fill="white"/>
<path d="M1.34139 18.7861C2.38551 18.8461 3.43292 18.7361 4.47368 18.8528C8.93002 18.9495 13.2547 21.4837 15.5635 25.3419C16.8876 27.5027 17.599 30.0637 17.5068 32.6082C17.5035 33.4417 17.5166 34.2717 17.4936 35.1024C15.8402 35.0521 14.1703 35.1888 12.5333 34.8652C8.89711 34.2452 5.55405 32.0542 3.54156 28.9266C2.01661 26.6524 1.25578 23.8747 1.33481 21.1303C1.33481 20.3468 1.33481 19.5664 1.34139 18.7861Z" fill="white"/>
<path d="M29.2294 19.1393C31.0215 18.7359 32.8688 18.8024 34.6903 18.8024L34.7696 18.8826C34.7299 20.6266 34.8649 22.3906 34.5191 24.1144C33.7912 27.9826 31.2618 31.4374 27.8593 33.3348C25.7415 34.5285 23.3107 35.1152 20.8899 35.0887C20.1159 35.0921 19.3385 35.0751 18.5645 35.0988C18.5645 33.6549 18.5052 32.2043 18.6667 30.7672C19.0421 27.289 20.8998 24.0512 23.5709 21.8637C25.2243 20.5432 27.1676 19.5862 29.2294 19.1393Z" fill="white" fill-opacity="0.6"/>
<path d="M48.2906 28.643C48.2906 29.23 48.0899 29.7268 47.6888 30.1331C47.3096 30.517 46.8298 30.709 46.2504 30.709C45.6926 30.709 45.2241 30.517 44.8454 30.1331C44.4661 29.7268 44.2765 29.23 44.2765 28.643V7.71241C44.2765 7.12537 44.4661 6.63992 44.8454 6.25611C45.2464 5.84971 45.7372 5.64648 46.3172 5.64648C46.8967 5.64648 47.3653 5.84971 47.7222 6.25611C48.101 6.63992 48.2906 7.12537 48.2906 7.71241V28.643Z" fill="white"/>
<path d="M64.4038 12.5898C64.9833 12.5898 65.463 12.793 65.8422 13.1995C66.221 13.5833 66.4106 14.0688 66.4106 14.6558V23.2583C66.4106 25.6517 65.753 27.5483 64.4373 28.9481C63.121 30.348 61.2257 31.0482 58.7499 31.0482C56.2745 31.0482 54.3787 30.348 53.0631 28.9481C51.7696 27.5483 51.1226 25.6517 51.1226 23.2583V14.6558C51.1226 14.0688 51.3122 13.5833 51.6915 13.1995C52.0707 12.793 52.5499 12.5898 53.1299 12.5898C53.7099 12.5898 54.1891 12.793 54.5683 13.1995C54.9476 13.5833 55.1372 14.0688 55.1372 14.6558V23.2583C55.1372 24.6356 55.4385 25.663 56.0403 26.3403C56.6427 26.9952 57.5456 27.3225 58.7499 27.3225C59.9769 27.3225 60.891 26.9952 61.4935 26.3403C62.0953 25.663 62.3964 24.6356 62.3964 23.2583V14.6558C62.3964 14.0688 62.5861 13.5833 62.9653 13.1995C63.3441 12.793 63.8237 12.5898 64.4038 12.5898Z" fill="white"/>
<path d="M78.4841 12.251C80.2683 12.251 81.584 12.6913 82.4318 13.5718C83.279 14.4298 83.8368 15.5474 84.1039 16.9247L83.5356 16.6199L83.8034 16.0781C84.0705 15.5587 84.4833 15.0056 85.0411 14.4186C85.5982 13.8089 86.2675 13.3009 87.0478 12.8945C87.851 12.4654 88.7428 12.251 89.7244 12.251C91.3302 12.251 92.5456 12.601 93.3704 13.3009C94.2182 14.0008 94.7977 14.9379 95.1102 16.1119C95.4225 17.2635 95.5787 18.5505 95.5787 19.9729V28.6431C95.5787 29.2302 95.389 29.7269 95.0098 30.1333C94.6305 30.5172 94.1514 30.7093 93.5713 30.7093C92.9918 30.7093 92.5122 30.5172 92.1329 30.1333C91.7536 29.7269 91.5639 29.2302 91.5639 28.6431V19.9729C91.5639 19.2278 91.4753 18.5617 91.2968 17.9747C91.1183 17.365 90.7948 16.8797 90.3263 16.5184C89.8583 16.1571 89.189 15.9764 88.3195 15.9764C87.4717 15.9764 86.7471 16.1571 86.1448 16.5184C85.5425 16.8797 85.0856 17.365 84.7733 17.9747C84.4833 18.5617 84.3382 19.2278 84.3382 19.9729V28.6431C84.3382 29.2302 84.1486 29.7269 83.7698 30.1333C83.3906 30.5172 82.9109 30.7093 82.3314 30.7093C81.7513 30.7093 81.2717 30.5172 80.8929 30.1333C80.5137 29.7269 80.324 29.2302 80.324 28.6431V19.9729C80.324 19.2278 80.2348 18.5617 80.0563 17.9747C79.8778 17.365 79.5544 16.8797 79.0864 16.5184C78.6179 16.1571 77.9486 15.9764 77.079 15.9764C76.2318 15.9764 75.5068 16.1571 74.9043 16.5184C74.3025 16.8797 73.8451 17.365 73.5328 17.9747C73.2433 18.5617 73.0984 19.2278 73.0984 19.9729V28.6431C73.0984 29.2302 72.9088 29.7269 72.5295 30.1333C72.1502 30.5172 71.6711 30.7093 71.0911 30.7093C70.5109 30.7093 70.0319 30.5172 69.6526 30.1333C69.2732 29.7269 69.0837 29.2302 69.0837 28.6431V14.6556C69.0837 14.0686 69.2732 13.5831 69.6526 13.1993C70.0319 12.7928 70.5109 12.5897 71.0911 12.5897C71.6711 12.5897 72.1502 12.7928 72.5295 13.1993C72.9088 13.5831 73.0984 14.0686 73.0984 14.6556V16.1119L72.5963 16.0104C72.7971 15.6266 73.076 15.2201 73.4325 14.7911C73.7894 14.3395 74.2244 13.9218 74.7376 13.5379C75.2502 13.1541 75.8191 12.8493 76.4432 12.6235C77.0679 12.3751 77.7483 12.251 78.4841 12.251Z" fill="white"/>
<path d="M102.032 28.6437C102.032 29.2308 101.842 29.7275 101.463 30.1337C101.084 30.5178 100.605 30.7098 100.025 30.7098C99.4451 30.7098 98.9654 30.5178 98.586 30.1337C98.2074 29.7275 98.0177 29.2308 98.0177 28.6437V14.6561C98.0177 14.069 98.2074 13.5837 98.586 13.1998C98.9654 12.7934 99.4451 12.5902 100.025 12.5902C100.605 12.5902 101.084 12.7934 101.463 13.1998C101.842 13.5837 102.032 14.069 102.032 14.6561V28.6437ZM99.991 10.3887C99.233 10.3887 98.6977 10.2646 98.3852 10.0162C98.0734 9.76781 97.9174 9.32754 97.9174 8.69532V8.05181C97.9174 7.39707 98.0847 6.95673 98.4188 6.73098C98.7758 6.48263 99.3111 6.3584 100.025 6.3584C100.805 6.3584 101.352 6.48263 101.664 6.73098C101.976 6.97932 102.132 7.41961 102.132 8.05181V8.69532C102.132 9.35013 101.965 9.8017 101.63 10.05C101.296 10.2759 100.75 10.3887 99.991 10.3887Z" fill="white"/>
<path d="M114.051 12.251C115.702 12.251 116.95 12.601 117.797 13.3009C118.668 14.0008 119.258 14.9379 119.571 16.1119C119.905 17.2635 120.073 18.5505 120.073 19.9729V28.6431C120.073 29.2302 119.883 29.7269 119.504 30.1333C119.124 30.5172 118.645 30.7093 118.065 30.7093C117.486 30.7093 117.006 30.5172 116.627 30.1333C116.248 29.7269 116.058 29.2302 116.058 28.6431V19.9729C116.058 19.2278 115.958 18.5617 115.757 17.9747C115.579 17.365 115.244 16.8797 114.753 16.5184C114.263 16.1571 113.56 15.9764 112.646 15.9764C111.754 15.9764 110.996 16.1571 110.371 16.5184C109.769 16.8797 109.301 17.365 108.966 17.9747C108.654 18.5617 108.498 19.2278 108.498 19.9729V28.6431C108.498 29.2302 108.309 29.7269 107.929 30.1333C107.55 30.5172 107.07 30.7093 106.491 30.7093C105.911 30.7093 105.431 30.5172 105.052 30.1333C104.673 29.7269 104.483 29.2302 104.483 28.6431V14.6556C104.483 14.0686 104.673 13.5831 105.052 13.1993C105.431 12.7928 105.911 12.5897 106.491 12.5897C107.07 12.5897 107.55 12.7928 107.929 13.1993C108.309 13.5831 108.498 14.0686 108.498 14.6556V16.1119L107.996 16.0104C108.197 15.6266 108.486 15.2201 108.866 14.7911C109.245 14.3395 109.691 13.9218 110.204 13.5379C110.717 13.1541 111.297 12.8493 111.943 12.6235C112.59 12.3751 113.293 12.251 114.051 12.251Z" fill="white"/>
<path d="M139.934 21.6663C139.934 23.5177 139.521 25.1547 138.697 26.5773C137.893 27.9771 136.8 29.0721 135.418 29.8622C134.058 30.6528 132.53 31.048 130.835 31.048C129.14 31.048 127.601 30.6528 126.218 29.8622C124.858 29.0721 123.765 27.9771 122.94 26.5773C122.137 25.1547 121.736 23.5177 121.736 21.6663C121.736 19.8148 122.137 18.1892 122.94 16.7892C123.765 15.3669 124.858 14.2605 126.218 13.4703C127.601 12.6574 129.14 12.251 130.835 12.251C132.53 12.251 134.058 12.6574 135.418 13.4703C136.8 14.2605 137.893 15.3669 138.697 16.7892C139.521 18.1892 139.934 19.8148 139.934 21.6663ZM135.919 21.6663C135.919 20.5148 135.685 19.5213 135.216 18.686C134.771 17.8279 134.158 17.1619 133.376 16.6877C132.618 16.2136 131.771 15.9764 130.835 15.9764C129.899 15.9764 129.04 16.2136 128.259 16.6877C127.5 17.1619 126.887 17.8279 126.419 18.686C125.973 19.5213 125.75 20.5148 125.75 21.6663C125.75 22.7952 125.973 23.7887 126.419 24.6467C126.887 25.4821 127.5 26.137 128.259 26.6111C129.04 27.0853 129.899 27.3223 130.835 27.3223C131.771 27.3223 132.618 27.0853 133.376 26.6111C134.158 26.137 134.771 25.4821 135.216 24.6467C135.685 23.7887 135.919 22.7952 135.919 21.6663Z" fill="white"/>
<path d="M154.896 12.5898C155.476 12.5898 155.956 12.793 156.335 13.1995C156.714 13.5833 156.903 14.0688 156.903 14.6558V23.2583C156.903 25.6517 156.245 27.5483 154.929 28.9481C153.614 30.348 151.718 31.0482 149.242 31.0482C146.767 31.0482 144.871 30.348 143.555 28.9481C142.261 27.5483 141.615 25.6517 141.615 23.2583V14.6558C141.615 14.0688 141.804 13.5833 142.183 13.1995C142.564 12.793 143.043 12.5898 143.623 12.5898C144.203 12.5898 144.681 12.793 145.061 13.1995C145.44 13.5833 145.629 14.0688 145.629 14.6558V23.2583C145.629 24.6356 145.93 25.663 146.533 26.3403C147.135 26.9952 148.038 27.3225 149.242 27.3225C150.469 27.3225 151.383 26.9952 151.985 26.3403C152.587 25.663 152.889 24.6356 152.889 23.2583V14.6558C152.889 14.0688 153.079 13.5833 153.458 13.1995C153.837 12.793 154.316 12.5898 154.896 12.5898Z" fill="white"/>
<path d="M158.541 27.8981C158.317 27.582 158.217 27.1756 158.238 26.6788C158.262 26.1821 158.551 25.753 159.109 25.3918C159.465 25.166 159.844 25.0757 160.246 25.1209C160.647 25.1435 161.037 25.3467 161.417 25.7305C162.064 26.3853 162.744 26.8933 163.458 27.2546C164.171 27.6158 165.063 27.7964 166.134 27.7964C166.469 27.7739 166.837 27.7288 167.237 27.661C167.639 27.5708 167.985 27.3901 168.275 27.1191C168.587 26.8256 168.743 26.3853 168.743 25.7983C168.743 25.3015 168.575 24.9064 168.241 24.6129C167.907 24.3193 167.461 24.071 166.903 23.8677C166.368 23.6645 165.766 23.4727 165.096 23.292C164.405 23.0887 163.692 22.8631 162.956 22.6146C162.242 22.3663 161.584 22.0501 160.982 21.6663C160.381 21.2599 159.889 20.7293 159.51 20.0745C159.131 19.4198 158.941 18.5955 158.941 17.6022C158.941 16.4732 159.254 15.5136 159.879 14.7233C160.502 13.9331 161.305 13.3235 162.286 12.8945C163.291 12.4654 164.338 12.251 165.431 12.251C166.123 12.251 166.847 12.3413 167.606 12.5219C168.364 12.68 169.089 12.9509 169.78 13.3348C170.472 13.696 171.052 14.1814 171.519 14.7911C171.765 15.1298 171.91 15.5362 171.955 16.0104C171.999 16.4845 171.787 16.9135 171.319 17.2974C170.985 17.5682 170.595 17.6925 170.148 17.6698C169.702 17.6247 169.335 17.4667 169.044 17.1957C168.665 16.699 168.153 16.3039 167.505 16.0104C166.88 15.7169 166.157 15.5701 165.331 15.5701C164.997 15.5701 164.629 15.6152 164.227 15.7055C163.848 15.7733 163.514 15.9426 163.223 16.2136C162.934 16.4619 162.789 16.8684 162.789 17.4327C162.789 17.9522 162.956 18.3698 163.291 18.686C163.625 18.9795 164.071 19.2278 164.629 19.431C165.208 19.6117 165.821 19.7923 166.469 19.9729C167.138 20.1535 167.817 20.3681 168.509 20.6164C169.2 20.8648 169.835 21.1921 170.415 21.5986C170.995 22.0049 171.464 22.5356 171.821 23.1904C172.177 23.8226 172.357 24.6355 172.357 25.6288C172.357 26.7805 172.021 27.7626 171.353 28.5754C170.683 29.3883 169.847 30.009 168.843 30.4382C167.84 30.8448 166.814 31.048 165.766 31.048C164.45 31.048 163.135 30.8221 161.819 30.3704C160.502 29.8961 159.41 29.0721 158.541 27.8981Z" fill="white"/>
</g>
<defs>
<clipPath id="clip0_24_720">
<rect width="171.579" height="35.3793" fill="white" transform="translate(0.954102 0.310547)"/>
</clipPath>
</defs>
</svg>
