<svg width="146" height="40" viewBox="0 0 146 40" fill="none" xmlns="http://www.w3.org/2000/svg">
<g clip-path="url(#clip0_24_2495)">
<path d="M32.1316 25.3345C32.1316 26.4761 31.6241 27.5431 30.7394 28.262L20.805 36.3328C18.9437 37.8891 16.0479 37.8891 14.1867 36.3328L4.25232 28.262C2.40794 26.8173 2.40822 23.8515 4.25232 22.4071L7.21525 20L4.25232 17.5929C2.40794 16.1483 2.40822 13.1825 4.25232 11.738L14.1866 3.6673C16.0479 2.11092 18.9438 2.11092 20.805 3.66724L30.7393 11.738C32.5837 13.1827 32.5834 16.1485 30.7393 17.5929C29.285 18.6811 27.652 16.6687 29.0143 15.4696C29.5261 15.0465 29.5269 14.2851 29.0143 13.8613L19.0801 5.79058C18.1622 5.04484 16.8297 5.04484 15.9116 5.79058L5.97736 13.8613C5.46552 14.2844 5.46477 15.0458 5.97736 15.4697L15.9116 23.5404C16.8295 24.2861 18.162 24.2862 19.0801 23.5404C19.0855 23.5361 19.0909 23.5317 19.0963 23.5275L20.6847 22.2766C21.2782 21.8092 22.1382 21.9116 22.6056 22.505C23.073 23.0985 22.9707 23.9585 22.3772 24.4259L20.7967 25.6706C18.9351 27.2205 16.0451 27.2176 14.1867 25.6638L9.38455 21.7624L5.97743 24.5305C5.46559 24.9535 5.46483 25.7149 5.97743 26.1388L15.9116 34.2095C16.8295 34.9552 18.162 34.9553 19.0801 34.2095L29.0143 26.1387C29.5262 25.7157 29.5269 24.9543 29.0143 24.5304L19.0801 16.4596C18.1622 15.7139 16.8297 15.7139 15.9116 16.4596C15.9062 16.464 15.9008 16.4683 15.8954 16.4726L14.307 17.7235C13.7135 18.1909 12.8536 18.0885 12.3861 17.4951C11.9187 16.9016 12.021 16.0416 12.6145 15.5742L14.195 14.3295C16.0565 12.7796 18.9466 12.7825 20.805 14.3363L30.7393 22.4071C31.6241 23.126 32.1316 24.1929 32.1316 25.3345Z" fill="black"/>
</g>
<path d="M39.6475 11.5801V7.26367H59.9678V11.5801H52.3975V32H47.2344V11.5801H39.6475ZM60.7002 32V13.4395H65.6641V16.6934H65.8633C66.2064 15.5423 66.7764 14.6735 67.5732 14.0869C68.3701 13.4893 69.2832 13.1904 70.3125 13.1904C70.5781 13.1904 70.8548 13.207 71.1426 13.2402C71.4414 13.2624 71.707 13.3066 71.9395 13.373V17.9219C71.696 17.8444 71.3584 17.7835 70.9268 17.7393C70.5062 17.6839 70.1133 17.6562 69.748 17.6562C69.0065 17.6562 68.3369 17.8223 67.7393 18.1543C67.1416 18.4753 66.6712 18.929 66.3281 19.5156C65.9961 20.0911 65.8301 20.7552 65.8301 21.5078V32H60.7002ZM78.7314 32.3486C77.5583 32.3486 76.5013 32.1439 75.5605 31.7344C74.6309 31.3138 73.9004 30.694 73.3691 29.875C72.8379 29.056 72.5723 28.0378 72.5723 26.8203C72.5723 25.7799 72.7604 24.9167 73.1367 24.2305C73.513 23.5332 74.0277 22.9688 74.6807 22.5371C75.3337 22.1055 76.0752 21.779 76.9053 21.5576C77.7354 21.3363 78.6152 21.1813 79.5449 21.0928C80.6185 20.9932 81.4818 20.8936 82.1348 20.7939C82.7878 20.6943 83.2637 20.5449 83.5625 20.3457C83.8724 20.1354 84.0273 19.8366 84.0273 19.4492V19.3662C84.0273 18.6025 83.7839 18.0104 83.2969 17.5898C82.821 17.1693 82.1458 16.959 81.2715 16.959C80.3529 16.959 79.6169 17.1637 79.0635 17.5732C78.5212 17.9717 78.1615 18.4808 77.9844 19.1006L73.2197 18.7188C73.4632 17.5898 73.9391 16.6159 74.6475 15.7969C75.3558 14.9668 76.2689 14.3304 77.3867 13.8877C78.5156 13.4339 79.8216 13.207 81.3047 13.207C82.334 13.207 83.319 13.3288 84.2598 13.5723C85.2005 13.8158 86.0361 14.1921 86.7666 14.7012C87.5081 15.1992 88.0947 15.8467 88.5264 16.6436C88.958 17.4404 89.1738 18.3867 89.1738 19.4824V32H84.2764V29.4102H84.1436C83.8447 29.9967 83.4463 30.5114 82.9482 30.9541C82.4502 31.3857 81.8525 31.7288 81.1553 31.9834C80.458 32.2269 79.6501 32.3486 78.7314 32.3486ZM80.209 28.7959C80.9616 28.7959 81.6257 28.6465 82.2012 28.3477C82.7878 28.0378 83.2415 27.6283 83.5625 27.1191C83.8945 26.599 84.0605 26.0179 84.0605 25.376V23.4004C83.9056 23.5 83.6842 23.5941 83.3965 23.6826C83.1198 23.7712 82.8099 23.8486 82.4668 23.915C82.1237 23.9814 81.7806 24.0423 81.4375 24.0977C81.0944 24.1419 80.7845 24.1862 80.5078 24.2305C79.8991 24.319 79.3678 24.4629 78.9141 24.6621C78.4603 24.8503 78.1061 25.1104 77.8516 25.4424C77.6081 25.7633 77.4863 26.1673 77.4863 26.6543C77.4863 27.3516 77.7409 27.8828 78.25 28.248C78.7591 28.6133 79.4121 28.7959 80.209 28.7959ZM109.28 13.4395L102.806 32H96.9951L90.5371 13.4395H95.9658L99.8672 26.7373H100.066L103.901 13.4395H109.28ZM111.341 32V13.4395H116.471V32H111.341ZM113.897 11.0654C113.134 11.0654 112.481 10.8109 111.938 10.3018C111.396 9.79264 111.125 9.17839 111.125 8.45898C111.125 7.73958 111.396 7.13086 111.938 6.63281C112.481 6.1237 113.134 5.86914 113.897 5.86914C114.672 5.86914 115.331 6.1237 115.873 6.63281C116.415 7.13086 116.687 7.73958 116.687 8.45898C116.687 9.17839 116.415 9.79264 115.873 10.3018C115.331 10.8109 114.672 11.0654 113.897 11.0654ZM125.288 32.3486C124.115 32.3486 123.058 32.1439 122.117 31.7344C121.188 31.3138 120.457 30.694 119.926 29.875C119.395 29.056 119.129 28.0378 119.129 26.8203C119.129 25.7799 119.317 24.9167 119.693 24.2305C120.07 23.5332 120.584 22.9688 121.237 22.5371C121.89 22.1055 122.632 21.779 123.462 21.5576C124.292 21.3363 125.172 21.1813 126.102 21.0928C127.175 20.9932 128.038 20.8936 128.691 20.7939C129.344 20.6943 129.82 20.5449 130.119 20.3457C130.429 20.1354 130.584 19.8366 130.584 19.4492V19.3662C130.584 18.6025 130.34 18.0104 129.854 17.5898C129.378 17.1693 128.702 16.959 127.828 16.959C126.91 16.959 126.174 17.1637 125.62 17.5732C125.078 17.9717 124.718 18.4808 124.541 19.1006L119.776 18.7188C120.02 17.5898 120.496 16.6159 121.204 15.7969C121.912 14.9668 122.826 14.3304 123.943 13.8877C125.072 13.4339 126.378 13.207 127.861 13.207C128.891 13.207 129.876 13.3288 130.816 13.5723C131.757 13.8158 132.593 14.1921 133.323 14.7012C134.065 15.1992 134.651 15.8467 135.083 16.6436C135.515 17.4404 135.73 18.3867 135.73 19.4824V32H130.833V29.4102H130.7C130.401 29.9967 130.003 30.5114 129.505 30.9541C129.007 31.3857 128.409 31.7288 127.712 31.9834C127.015 32.2269 126.207 32.3486 125.288 32.3486ZM126.766 28.7959C127.518 28.7959 128.182 28.6465 128.758 28.3477C129.344 28.0378 129.798 27.6283 130.119 27.1191C130.451 26.599 130.617 26.0179 130.617 25.376V23.4004C130.462 23.5 130.241 23.5941 129.953 23.6826C129.676 23.7712 129.367 23.8486 129.023 23.915C128.68 23.9814 128.337 24.0423 127.994 24.0977C127.651 24.1419 127.341 24.1862 127.064 24.2305C126.456 24.319 125.924 24.4629 125.471 24.6621C125.017 24.8503 124.663 25.1104 124.408 25.4424C124.165 25.7633 124.043 26.1673 124.043 26.6543C124.043 27.3516 124.298 27.8828 124.807 28.248C125.316 28.6133 125.969 28.7959 126.766 28.7959ZM144.365 7.26367V32H139.235V7.26367H144.365Z" fill="#1D1729"/>
<defs>
<clipPath id="clip0_24_2495">
<rect width="35" height="35" fill="white" transform="translate(0 2.5)"/>
</clipPath>
</defs>
</svg>
